# Blender 5.1.2
# www.blender.org
mtllib Flare Key7.mtl
o Cube.001
v -0.462704 -0.505166 0.063355
v -0.418481 -0.462385 0.063355
v -0.241300 -0.462385 0.063355
v -0.223387 -0.505166 0.063355
v -0.325158 -0.179984 0.051836
v -0.298800 -0.179984 0.051836
v -0.286827 -0.151732 0.063355
v -0.286827 -0.151732 0.051836
v -0.296193 -0.108917 0.063355
v -0.211300 -0.179984 0.051836
v -0.205814 -0.142072 0.051836
v -0.136158 -0.208092 0.063355
v -0.092686 -0.180806 0.063355
v -0.112824 0.084597 0.051836
v -0.054332 0.046684 0.051836
v -0.462704 -0.505166 -0.063355
v -0.418481 -0.462385 -0.063355
v -0.241300 -0.462385 -0.063355
v -0.223387 -0.505166 -0.063355
v -0.325158 -0.179984 -0.051836
v -0.298800 -0.179984 -0.051836
v -0.286827 -0.151732 -0.051836
v -0.286827 -0.151732 -0.063355
v -0.296193 -0.108917 -0.063355
v -0.211300 -0.179984 -0.051836
v -0.205814 -0.142072 -0.051836
v -0.136158 -0.208092 -0.063355
v -0.092686 -0.180806 -0.063355
v -0.112824 0.084597 -0.051836
v -0.054332 0.046684 -0.051836
v 0.065109 0.046684 0.051836
v 0.065109 0.084597 0.051836
v 0.284211 -0.142072 0.051836
v 0.334349 -0.179984 0.051836
v 0.351369 -0.058389 0.051836
v 0.431933 -0.058389 0.051836
v 0.065109 0.046684 -0.051836
v 0.065109 0.084597 -0.051836
v 0.284211 -0.142072 -0.051836
v 0.334349 -0.179984 -0.051836
v 0.351369 -0.058389 -0.051836
v 0.431933 -0.058389 -0.051836
vn -0.7799 0.6259 -0.0000
vn -0.0000 -0.0000 -1.0000
vn 0.7799 -0.6259 -0.0000
vn -0.0000 -0.0000 1.0000
vn -0.0000 -1.0000 -0.0000
vn -0.0000 1.0000 -0.0000
vn 1.0000 -0.0000 -0.0000
vn -0.9219 0.3874 -0.0000
vn 0.9275 -0.3738 -0.0000
vn 0.3331 0.9429 -0.0000
vn 0.9207 -0.3902 -0.0000
vn -0.9241 0.3821 -0.0000
vn -0.3504 -0.9366 -0.0000
vt 0.625000 0.000000
vt 0.375000 0.250000
vt 0.375000 0.000000
vt 0.589177 0.283706
vt 0.625000 0.317449
vt 0.589177 0.328983
vt 0.489895 0.500000
vt 0.410823 0.469461
vt 0.489895 0.469461
vt 0.401695 0.255935
vt 0.410823 0.283706
vt 0.375000 0.750000
vt 0.489895 0.750000
vt 0.410823 0.780539
vt 0.489895 0.780539
vt 0.589177 0.966294
vt 0.625000 0.932551
vt 0.625000 1.000000
vt 0.375000 1.000000
vt 0.401695 0.994065
vt 0.168160 0.500000
vt 0.375000 0.500000
vt 0.125000 0.500000
vt 0.134992 0.750000
vt 0.125000 0.750000
vt 0.875000 0.500000
vt 0.807551 0.750000
vt 0.807551 0.500000
vt 0.625000 0.044764
vt 0.375000 0.205236
vt 0.625000 0.205236
vt 0.375000 0.705236
vt 0.485835 0.544764
vt 0.375000 0.544764
vt 0.125000 0.705236
vt 0.125000 0.544764
vt 0.814064 0.705236
vt 0.875000 0.544764
vt 0.814064 0.544764
vt 0.541065 0.583592
vt 0.510779 0.666408
vt 0.510779 0.583592
vt 0.761308 0.583592
vt 0.799670 0.666408
vt 0.761308 0.666408
vt 0.402745 0.277515
vt 0.406599 0.463102
vt 0.625000 0.500000
vt 0.602886 0.279211
vt 0.625000 0.250000
vt 0.625000 0.750000
vt 0.402745 0.972485
vt 0.602886 0.970789
vt 0.875000 0.750000
vt 0.625000 0.200252
vt 0.375000 0.033025
vt 0.375000 0.216975
vt 0.602264 0.200252
vt 0.625000 0.049748
vt 0.602264 0.049748
vt 0.625000 0.716975
vt 0.375000 0.533025
vt 0.375000 0.716975
vt 0.125000 0.533025
vt 0.125000 0.716975
vt 0.875000 0.716975
vt 0.875000 0.549748
vt 0.749681 0.549748
vt 0.749681 0.700252
vt 0.875000 0.533025
vt 0.375000 0.259992
vt 0.375000 0.293160
vt 0.589177 0.921017
vt 0.375000 0.990008
vt 0.375000 0.956840
vt 0.410823 0.966294
vt 0.168160 0.750000
vt 0.134992 0.500000
vt 0.375000 0.044764
vt 0.485835 0.705236
vt 0.875000 0.705236
vt 0.541065 0.666408
vt 0.799670 0.583592
vt 0.598018 0.465305
vt 0.406599 0.786898
vt 0.598018 0.784695
vt 0.625000 0.216975
vt 0.625000 0.033025
vt 0.625000 0.533025
vt 0.875000 0.700252
s 0
usemtl 
f 14/1/1 20/2/1 5/3/1
f 30/4/2 38/5/2 37/6/2
f 42/7/2 39/8/2 41/9/2
f 22/10/2 30/4/2 26/11/2
f 34/12/3 42/7/3 36/13/3
f 33/14/4 36/13/4 35/15/4
f 15/16/4 32/17/4 14/18/4
f 14/18/4 5/19/4 8/20/4
f 34/12/5 25/21/5 40/22/5
f 20/23/5 6/24/5 5/25/5
f 29/26/6 32/27/6 38/28/6
f 15/29/3 26/30/3 30/31/3
f 33/32/1 41/33/1 39/34/1
f 11/35/6 39/34/6 26/36/6
f 31/37/5 30/38/5 37/39/5
f 31/40/7 38/41/7 32/42/7
f 35/43/6 42/44/6 41/45/6
f 9/1/8 16/2/8 1/3/8
f 17/46/2 18/47/2 19/22/2
f 28/48/2 23/49/2 24/50/2
f 4/12/9 28/48/9 13/51/9
f 2/52/4 1/19/4 4/12/4
f 7/53/4 13/51/4 9/18/4
f 1/25/5 19/22/5 4/12/5
f 13/51/10 24/26/10 9/54/10
f 22/55/11 2/56/11 17/57/11
f 21/58/11 8/59/11 6/60/11
f 12/61/12 18/62/12 3/63/12
f 3/63/6 17/64/6 2/65/6
f 7/66/13 22/67/13 25/68/13
f 10/69/13 22/67/13 23/70/13
f 14/1/1 29/50/1 20/2/1
f 30/4/2 29/50/2 38/5/2
f 42/7/2 40/22/2 39/8/2
f 22/10/2 21/71/2 20/2/2
f 20/2/2 29/50/2 22/10/2
f 29/50/2 30/4/2 22/10/2
f 26/11/2 39/8/2 25/72/2
f 39/8/2 40/22/2 25/72/2
f 25/72/2 22/10/2 26/11/2
f 34/12/3 40/22/3 42/7/3
f 33/14/4 34/12/4 36/13/4
f 15/16/4 31/73/4 32/17/4
f 5/19/4 6/74/4 8/20/4
f 8/20/4 10/75/4 11/76/4
f 10/75/4 34/12/4 33/14/4
f 11/76/4 10/75/4 33/14/4
f 11/76/4 15/16/4 8/20/4
f 15/16/4 14/18/4 8/20/4
f 34/12/5 10/77/5 25/21/5
f 20/23/5 21/78/5 6/24/5
f 29/26/6 14/54/6 32/27/6
f 15/29/3 11/79/3 26/30/3
f 33/32/1 35/80/1 41/33/1
f 11/35/6 33/32/6 39/34/6
f 31/37/5 15/81/5 30/38/5
f 31/40/7 37/82/7 38/41/7
f 35/43/6 36/83/6 42/44/6
f 9/1/8 24/50/8 16/2/8
f 16/2/2 24/50/2 17/46/2
f 24/50/2 23/49/2 17/46/2
f 27/84/2 28/48/2 18/47/2
f 28/48/2 19/22/2 18/47/2
f 16/2/2 17/46/2 19/22/2
f 28/48/2 27/84/2 23/49/2
f 4/12/9 19/22/9 28/48/9
f 2/52/4 7/53/4 9/18/4
f 4/12/4 13/51/4 3/85/4
f 13/51/4 12/86/4 3/85/4
f 2/52/4 9/18/4 1/19/4
f 4/12/4 3/85/4 2/52/4
f 7/53/4 12/86/4 13/51/4
f 1/25/5 16/23/5 19/22/5
f 13/51/10 28/48/10 24/26/10
f 17/57/11 23/87/11 22/55/11
f 22/55/11 7/88/11 2/56/11
f 21/58/11 22/55/11 8/59/11
f 12/61/12 27/89/12 18/62/12
f 3/63/6 18/62/6 17/64/6
f 10/69/13 23/70/13 25/68/13
f 23/70/13 27/89/13 25/68/13
f 27/89/13 12/61/13 25/68/13
f 12/61/13 7/66/13 25/68/13
f 10/69/13 8/90/13 22/67/13
