# Blender 5.1.2
# www.blender.org
mtllib keylaws right  3.mtl
o Fist
v -1.604213 0.376427 -0.498947
v -1.588348 -0.554437 0.399829
v -1.599149 0.360378 0.415902
v -1.593417 -0.538395 -0.515019
v 2.607837 0.387027 0.403987
v 2.613577 -0.511745 -0.526931
v 2.602781 0.403077 -0.510860
v 2.618632 -0.527787 0.387912
v 2.558467 -0.566341 -0.527728
v 2.557528 -0.511146 -0.581019
v 2.613577 -0.511745 -0.526931
v 2.602781 0.403077 -0.510860
v 2.546733 0.403663 -0.564941
v 2.546392 0.456963 -0.509748
v 2.563522 -0.582382 0.387117
v 2.618632 -0.527787 0.387912
v 2.563182 -0.529092 0.442315
v 2.552386 0.385731 0.458386
v 2.607837 0.387027 0.403987
v 2.551447 0.440913 0.405098
v -1.537023 -0.592280 -0.516130
v -1.593417 -0.538395 -0.515019
v -1.537947 -0.537097 -0.569414
v -1.548745 0.377726 -0.553341
v -1.604213 0.376427 -0.498947
v -1.549101 0.431023 -0.498151
v -1.531974 -0.608330 0.398714
v -1.532306 -0.555038 0.453911
v -1.588348 -0.554437 0.399829
v -1.599149 0.360378 0.415902
v -1.543098 0.359776 0.469989
v -1.544039 0.414973 0.416697
v 2.613577 -0.511745 -0.526931
v 2.563522 -0.582382 0.387117
v 2.558467 -0.566341 -0.527728
v 2.618632 -0.527787 0.387912
v 2.607837 0.387027 0.403987
v 2.546392 0.456963 -0.509748
v 2.551447 0.440913 0.405098
v 2.602781 0.403077 -0.510860
v -1.588348 -0.554437 0.399829
v -1.593417 -0.538395 -0.515019
v -1.537023 -0.592280 -0.516130
v -1.531974 -0.608330 0.398714
v -1.604213 0.376427 -0.498947
v -1.599149 0.360378 0.415902
v -1.544039 0.414973 0.416697
v -1.549101 0.431023 -0.498151
v 2.563182 -0.529092 0.442315
v -1.532306 -0.555038 0.453911
v -1.531974 -0.608330 0.398714
v 2.563522 -0.582382 0.387117
v 2.551447 0.440913 0.405098
v -1.544039 0.414973 0.416697
v -1.543098 0.359776 0.469989
v 2.552386 0.385731 0.458386
v -1.537947 -0.537097 -0.569414
v 2.557528 -0.511146 -0.581019
v 2.558467 -0.566341 -0.527728
v -1.537023 -0.592280 -0.516130
v -1.549101 0.431023 -0.498151
v 2.546392 0.456963 -0.509748
v 2.546733 0.403663 -0.564941
v -1.548745 0.377726 -0.553341
v 2.546733 0.403663 -0.564941
v -1.537947 -0.537097 -0.569414
v -1.548745 0.377726 -0.553341
v 2.557528 -0.511146 -0.581019
v -1.544039 0.414973 0.416697
v 2.551447 0.440913 0.405098
v 2.546392 0.456963 -0.509748
v -1.549101 0.431023 -0.498151
v -1.543098 0.359776 0.469989
v 2.563182 -0.529092 0.442315
v 2.552386 0.385731 0.458386
v -1.532306 -0.555038 0.453911
v -1.537023 -0.592280 -0.516130
v 2.558467 -0.566341 -0.527728
v 2.563522 -0.582382 0.387117
v -1.531974 -0.608330 0.398714
v -1.615031 0.378696 -0.501176
v -1.599164 -0.556845 0.402115
v -1.609967 0.362549 0.418290
v -1.604224 -0.540707 -0.517345
v 2.618644 0.389340 0.406315
v 2.624394 -0.513921 -0.529320
v 2.613587 0.405470 -0.513146
v 2.629455 -0.530056 0.390142
v 2.563633 -0.573399 -0.530629
v 2.562589 -0.513780 -0.588267
v 2.624394 -0.513921 -0.529320
v 2.613587 0.405470 -0.513146
v 2.551765 0.406620 -0.572083
v 2.551424 0.464173 -0.512417
v 2.568758 -0.589546 0.389743
v 2.629455 -0.530056 0.390142
v 2.568332 -0.532000 0.449383
v 2.557506 0.388400 0.465568
v 2.618644 0.389340 0.406315
v 2.556514 0.448039 0.408016
v -1.542085 -0.599404 -0.519046
v -1.604224 -0.540707 -0.517345
v -1.543070 -0.539765 -0.576597
v -1.553906 0.380631 -0.560414
v -1.615031 0.378696 -0.501176
v -1.554338 0.438181 -0.500778
v -1.536988 -0.615544 0.401392
v -1.537336 -0.557981 0.461052
v -1.599164 -0.556845 0.402115
v -1.609967 0.362549 0.418290
v -1.548162 0.362411 0.477236
v -1.549207 0.422035 0.419597
v 2.624394 -0.513921 -0.529320
v 2.568758 -0.589546 0.389743
v 2.563633 -0.573399 -0.530629
v 2.629455 -0.530056 0.390142
v 2.618644 0.389340 0.406315
v 2.551424 0.464173 -0.512417
v 2.556514 0.448039 0.408016
v 2.613587 0.405470 -0.513146
v -1.599164 -0.556845 0.402115
v -1.604224 -0.540707 -0.517345
v -1.542085 -0.599404 -0.519046
v -1.536988 -0.615544 0.401392
v -1.615031 0.378696 -0.501176
v -1.609967 0.362549 0.418290
v -1.549207 0.422035 0.419597
v -1.554338 0.438181 -0.500778
v 2.568332 -0.532000 0.449383
v -1.537336 -0.557981 0.461052
v -1.536988 -0.615544 0.401392
v 2.568758 -0.589546 0.389743
v 2.556514 0.448039 0.408016
v -1.549207 0.422035 0.419597
v -1.548162 0.362411 0.477236
v 2.557506 0.388400 0.465568
v -1.543070 -0.539765 -0.576597
v 2.562589 -0.513780 -0.588267
v 2.563633 -0.573399 -0.530629
v -1.542085 -0.599404 -0.519046
v -1.554338 0.438181 -0.500778
v 2.551424 0.464173 -0.512417
v 2.551765 0.406620 -0.572083
v -1.553906 0.380631 -0.560414
v 2.551765 0.406620 -0.572083
v -1.543070 -0.539765 -0.576597
v -1.553906 0.380631 -0.560414
v 2.562589 -0.513780 -0.588267
v -1.549207 0.422035 0.419597
v 2.556514 0.448039 0.408016
v 2.551424 0.464173 -0.512417
v -1.554338 0.438181 -0.500778
v -1.548162 0.362411 0.477236
v 2.568332 -0.532000 0.449383
v 2.557506 0.388400 0.465568
v -1.537336 -0.557981 0.461052
v -1.542085 -0.599404 -0.519046
v 2.563633 -0.573399 -0.530629
v 2.568758 -0.589546 0.389743
v -1.536988 -0.615544 0.401392
vn -0.8756 0.3444 -0.3387
vn -0.8662 -0.3618 0.3446
vn -0.8724 0.3293 0.3613
vn -0.8689 -0.3489 -0.3512
vn 0.8689 0.3489 0.3512
vn 0.8723 -0.3293 -0.3614
vn 0.8662 0.3619 -0.3446
vn 0.8756 -0.3445 0.3386
vn 0.3392 -0.8700 -0.3578
vn 0.3301 -0.3224 -0.8872
vn 0.8723 -0.3294 -0.3615
vn 0.8661 0.3618 -0.3448
vn 0.3281 0.3603 -0.8732
vn 0.3288 0.8856 -0.3280
vn 0.3433 -0.8818 0.3234
vn 0.8755 -0.3445 0.3388
vn 0.3378 -0.3580 0.8705
vn 0.3354 0.3284 0.8830
vn 0.8688 0.3489 0.3514
vn 0.3307 0.8734 0.3575
vn -0.3307 -0.8734 -0.3575
vn -0.8688 -0.3489 -0.3514
vn -0.3354 -0.3283 -0.8830
vn -0.3378 0.3581 -0.8704
vn -0.8755 0.3445 -0.3387
vn -0.3433 0.8818 -0.3233
vn -0.3288 -0.8856 0.3279
vn -0.3281 -0.3603 0.8732
vn -0.8662 -0.3618 0.3448
vn -0.8723 0.3293 0.3615
vn -0.3301 0.3223 0.8872
vn -0.3391 0.8700 0.3578
vn 0.8723 -0.3295 -0.3613
vn 0.3433 -0.8818 0.3233
vn 0.3391 -0.8700 -0.3578
vn 0.8755 -0.3446 0.3387
vn 0.8688 0.3490 0.3512
vn 0.3288 0.8856 -0.3279
vn 0.8661 0.3620 -0.3447
vn -0.8661 -0.3620 0.3446
vn -0.8688 -0.3490 -0.3513
vn -0.3288 -0.8856 0.3281
vn -0.8756 0.3446 -0.3385
vn -0.8723 0.3295 0.3613
vn -0.3433 0.8818 -0.3234
vn 0.3377 -0.3580 0.8705
vn -0.3288 -0.8857 0.3279
vn 0.3307 0.8734 0.3574
vn -0.3392 0.8700 0.3577
vn 0.3355 0.3284 0.8830
vn 0.3301 -0.3223 -0.8872
vn 0.3392 -0.8701 -0.3577
vn -0.3308 -0.8734 -0.3575
vn 0.3281 0.3603 -0.8733
vn -0.3354 -0.3284 -0.8830
vn -0.3377 0.3581 -0.8704
vn -0.3301 0.3224 0.8872
vn 0.3378 -0.3581 0.8704
vn -0.8756 0.3445 -0.3387
vn -0.8723 0.3294 0.3613
vn 0.8724 -0.3293 -0.3613
vn 0.8723 -0.3293 -0.3615
vn 0.8661 0.3619 -0.3448
vn 0.3378 -0.3581 0.8705
vn -0.3355 -0.3284 -0.8830
vn -0.8755 0.3445 -0.3388
vn -0.8661 -0.3619 0.3448
vn -0.3392 0.8700 0.3578
vn 0.8723 -0.3294 -0.3613
vn 0.3432 -0.8819 0.3233
vn -0.3307 -0.8734 -0.3574
vn -0.8755 0.3446 -0.3387
vn -0.8722 0.3294 0.3615
vn 0.3377 -0.3581 0.8705
vn 0.3307 0.8735 0.3574
vn -0.3393 0.8700 0.3577
vn 0.3354 0.3283 0.8830
vn 0.3392 -0.8701 -0.3576
vn 0.3281 0.3602 -0.8733
vn -0.3378 0.3581 -0.8705
vn -0.3377 0.3582 -0.8704
vn 0.3432 -0.8818 0.3234
vt 0.372650 0.019678
vt 0.478632 0.130590
vt 0.372650 0.130590
vt 0.478632 0.019678
vt 0.478632 0.481216
vt 0.372650 0.370304
vt 0.478632 0.370304
vt 0.372650 0.481216
vt 0.478632 0.363148
vt 0.478632 0.137746
vt 0.365812 0.363148
vt 0.365812 0.137746
vt 0.140171 0.137746
vt 0.140171 0.363148
vt 0.252991 0.137746
vt 0.252991 0.363148
vt 0.147009 0.137746
vt 0.147009 0.363148
vt 0.259829 0.363148
vt 0.259829 0.137746
vt 0.372650 0.137746
vt 0.372650 0.363148
vt 0.034188 0.363148
vt 0.034188 0.137746
s 1
usemtl Rightarm1Mtl
f 1/1/1 2/2/2 3/3/3
f 2/2/2 1/1/1 4/4/4
f 5/5/5 6/6/6 7/7/7
f 6/6/6 5/5/5 8/8/8
f 9/6/9 10/6/10 11/6/11
f 10/6/10 12/7/12 11/6/11
f 12/7/12 10/6/10 13/7/13
f 13/7/13 14/7/14 12/7/12
f 15/8/15 16/8/16 17/8/17
f 18/5/18 17/8/17 16/8/16
f 16/8/16 19/5/19 18/5/18
f 20/5/20 18/5/18 19/5/19
f 21/4/21 22/4/22 23/4/23
f 24/1/24 23/4/23 22/4/22
f 22/4/22 25/1/25 24/1/24
f 26/1/26 24/1/24 25/1/25
f 27/2/27 28/2/28 29/2/29
f 30/3/30 29/2/29 28/2/28
f 28/2/28 31/3/31 30/3/30
f 32/3/32 30/3/30 31/3/31
f 33/6/33 34/8/34 35/6/35
f 34/8/34 33/6/33 36/8/36
f 37/5/37 38/7/38 39/5/20
f 38/7/38 37/5/37 40/7/39
f 41/2/40 42/4/41 43/4/21
f 43/4/21 44/2/42 41/2/40
f 45/1/43 46/3/44 47/3/32
f 47/3/32 48/1/45 45/1/43
f 49/9/46 50/10/28 51/10/47
f 49/9/46 51/10/47 52/9/34
f 53/11/48 54/12/49 55/12/31
f 53/11/48 55/12/31 56/11/50
f 57/13/23 58/14/51 59/14/52
f 57/13/23 59/14/52 60/13/53
f 61/15/26 62/16/38 63/16/54
f 61/15/26 63/16/54 64/15/24
f 65/16/13 66/17/55 67/15/56
f 66/17/55 65/16/13 68/18/51
f 69/12/32 70/11/20 71/19/14
f 69/12/32 71/19/14 72/20/26
f 73/21/57 74/9/58 75/22/18
f 74/9/58 73/21/57 76/10/28
f 77/13/21 78/14/52 79/23/34
f 77/13/21 79/23/34 80/24/27
usemtl Rightarm2Mtl
f 81/1/59 82/2/2 83/3/60
f 82/2/2 81/1/59 84/4/4
f 85/5/5 86/6/61 87/7/7
f 86/6/61 85/5/5 88/8/8
f 89/6/9 90/6/51 91/6/62
f 90/6/51 92/7/63 91/6/62
f 92/7/63 90/6/51 93/7/13
f 93/7/13 94/7/38 92/7/63
f 95/8/15 96/8/16 97/8/64
f 98/5/18 97/8/64 96/8/16
f 96/8/16 99/5/19 98/5/18
f 100/5/20 98/5/18 99/5/19
f 101/4/21 102/4/22 103/4/65
f 104/1/56 103/4/65 102/4/22
f 102/4/22 105/1/66 104/1/56
f 106/1/26 104/1/56 105/1/66
f 107/2/27 108/2/28 109/2/67
f 110/3/30 109/2/67 108/2/28
f 108/2/28 111/3/31 110/3/30
f 112/3/68 110/3/30 111/3/31
f 113/6/69 114/8/70 115/6/9
f 114/8/70 113/6/69 116/8/36
f 117/5/5 118/7/14 119/5/20
f 118/7/14 117/5/5 120/7/7
f 121/2/40 122/4/41 123/4/71
f 123/4/71 124/2/27 121/2/40
f 125/1/72 126/3/73 127/3/32
f 127/3/32 128/1/26 125/1/72
f 129/9/74 130/10/28 131/10/27
f 129/9/74 131/10/27 132/9/34
f 133/11/75 134/12/76 135/12/31
f 133/11/75 135/12/31 136/11/77
f 137/13/23 138/14/51 139/14/78
f 137/13/23 139/14/78 140/13/21
f 141/15/26 142/16/38 143/16/79
f 141/15/26 143/16/79 144/15/80
f 145/16/13 146/17/55 147/15/81
f 146/17/55 145/16/13 148/18/10
f 149/12/32 150/11/20 151/19/38
f 149/12/32 151/19/38 152/20/26
f 153/21/31 154/9/64 155/22/18
f 154/9/64 153/21/31 156/10/28
f 157/13/21 158/14/35 159/23/82
f 157/13/21 159/23/82 160/24/27
o Cube.005
v -2.713167 0.230847 0.636106
v -2.713167 0.322812 0.728070
v -2.550525 0.381612 0.485342
v -2.550525 0.473576 0.577306
v -1.413456 0.230847 0.636106
v -1.413456 0.322812 0.728070
v -1.413456 0.381612 0.485342
v -1.413456 0.473576 0.577306
v -1.337211 0.169617 0.674085
v -1.337211 0.291607 0.796074
v -1.337211 0.681628 0.162074
v -1.337211 0.803617 0.284064
v -0.557312 0.169617 0.674085
v -0.557312 0.291607 0.796074
v -0.557312 0.681628 0.162074
v -0.557312 0.803617 0.284064
v -0.402534 0.547612 0.540069
v -0.402534 0.425623 0.418080
v -1.235022 0.281394 0.651685
v -1.235022 0.371415 0.741706
v -1.235022 0.659228 0.273851
v -1.235022 0.749250 0.363872
v -0.659501 0.281394 0.651685
v -0.659501 0.371415 0.741706
v -0.659501 0.659228 0.273851
v -0.659501 0.749250 0.363872
v -0.545284 0.560332 0.552789
v -0.545284 0.470311 0.462768
v -0.352554 0.169617 0.674085
v -0.352554 0.291607 0.796074
v -0.352554 0.681628 0.162074
v -0.352554 0.803617 0.284064
v -0.171965 0.169617 0.674085
v -0.171965 0.291607 0.796074
v -0.171965 0.681628 0.162074
v -0.171965 0.803617 0.284064
v -0.017186 0.547612 0.540069
v -0.017186 0.425623 0.418080
v -0.207084 0.547612 0.540069
v -0.207084 0.425623 0.418080
v -1.449672 0.136209 0.694637
v -1.449672 0.271055 0.829483
v -1.449672 0.702180 0.128666
v -1.449672 0.837026 0.263512
v -1.250051 0.136209 0.694637
v -1.250051 0.271055 0.829483
v -1.250051 0.702180 0.128666
v -1.250051 0.837026 0.263512
v -1.343942 0.554040 0.546497
v -1.343942 0.419195 0.411652
v -1.540751 0.554040 0.546497
v -1.540751 0.419195 0.411652
v -2.713167 0.495591 0.371362
v -2.713167 0.587555 0.463327
v -2.550525 0.646355 0.220598
v -2.550525 0.738320 0.312562
v -1.413456 0.495591 0.371362
v -1.413456 0.587555 0.463327
v -1.413456 0.646355 0.220598
v -1.413456 0.738320 0.312562
vn -0.7951 0.4289 -0.4289
vn -0.0000 0.7071 -0.7071
vn 1.0000 -0.0000 -0.0000
vn -0.0000 -0.7071 0.7071
vn -0.0000 -0.7071 -0.7071
vn -0.0000 0.7071 0.7071
vn -1.0000 -0.0000 -0.0000
vt 0.375000 0.000000
vt 0.625000 0.000000
vt 0.625000 0.250000
vt 0.375000 0.250000
vt 0.625000 0.500000
vt 0.375000 0.500000
vt 0.625000 0.750000
vt 0.375000 0.750000
vt 0.625000 1.000000
vt 0.375000 1.000000
vt 0.125000 0.500000
vt 0.125000 0.750000
vt 0.875000 0.500000
vt 0.875000 0.750000
vt 0.625000 0.625000
vt 0.375000 0.625000
vt 0.625000 0.125000
vt 0.375000 0.125000
vt 0.125000 0.625000
vt 0.875000 0.625000
s 0
f 161/25/83 162/26/83 164/27/83 163/28/83
f 163/28/84 164/27/84 168/29/84 167/30/84
f 167/30/85 168/29/85 166/31/85 165/32/85
f 165/32/86 166/31/86 162/33/86 161/34/86
f 163/35/87 167/30/87 165/32/87 161/36/87
f 168/29/88 164/37/88 162/38/88 166/31/88
f 169/25/89 170/26/89 172/27/89 171/28/89
f 171/28/84 172/27/84 176/29/84 175/30/84
f 175/30/85 176/29/85 177/39/85 174/31/85 173/32/85 178/40/85
f 173/32/86 174/31/86 170/33/86 169/34/86
f 171/35/87 175/30/87 178/40/87 173/32/87 169/36/87
f 176/29/88 172/37/88 170/38/88 174/31/88 177/39/88
f 179/25/89 180/26/89 182/27/89 181/28/89
f 181/28/84 182/27/84 186/29/84 185/30/84
f 185/30/85 186/29/85 187/39/85 184/31/85 183/32/85 188/40/85
f 183/32/86 184/31/86 180/33/86 179/34/86
f 181/35/87 185/30/87 188/40/87 183/32/87 179/36/87
f 186/29/88 182/37/88 180/38/88 184/31/88 187/39/88
f 189/25/89 190/26/89 199/41/89 192/27/89 191/28/89 200/42/89
f 191/28/84 192/27/84 196/29/84 195/30/84
f 195/30/85 196/29/85 197/39/85 194/31/85 193/32/85 198/40/85
f 193/32/86 194/31/86 190/33/86 189/34/86
f 191/35/87 195/30/87 198/40/87 193/32/87 189/36/87 200/43/87
f 196/29/88 192/37/88 199/44/88 190/38/88 194/31/88 197/39/88
f 201/25/89 202/26/89 211/41/89 204/27/89 203/28/89 212/42/89
f 203/28/84 204/27/84 208/29/84 207/30/84
f 207/30/85 208/29/85 209/39/85 206/31/85 205/32/85 210/40/85
f 205/32/86 206/31/86 202/33/86 201/34/86
f 203/35/87 207/30/87 210/40/87 205/32/87 201/36/87 212/43/87
f 208/29/88 204/37/88 211/44/88 202/38/88 206/31/88 209/39/88
f 213/25/83 214/26/83 216/27/83 215/28/83
f 215/28/84 216/27/84 220/29/84 219/30/84
f 219/30/85 220/29/85 218/31/85 217/32/85
f 217/32/86 218/31/86 214/33/86 213/34/86
f 215/35/87 219/30/87 217/32/87 213/36/87
f 220/29/88 216/37/88 214/38/88 218/31/88
