# Blender 5.1.2
# www.blender.org
mtllib keylaws left  8.mtl
o Fist
v -1.604213 0.376427 -0.498947
v -1.588348 -0.554437 0.399829
v -1.599149 0.360378 0.415902
v -1.593417 -0.538395 -0.515019
v 2.607837 0.387027 0.403987
v 2.613577 -0.511745 -0.526931
v 2.602781 0.403077 -0.510860
v 2.618632 -0.527787 0.387912
v 2.558467 -0.566341 -0.527728
v 2.557528 -0.511146 -0.581019
v 2.613577 -0.511745 -0.526931
v 2.602781 0.403077 -0.510860
v 2.546733 0.403663 -0.564941
v 2.546392 0.456963 -0.509748
v 2.563522 -0.582382 0.387117
v 2.618632 -0.527787 0.387912
v 2.563182 -0.529092 0.442315
v 2.552386 0.385731 0.458386
v 2.607837 0.387027 0.403987
v 2.551447 0.440913 0.405098
v -1.537023 -0.592280 -0.516130
v -1.593417 -0.538395 -0.515019
v -1.537947 -0.537097 -0.569414
v -1.548745 0.377726 -0.553341
v -1.604213 0.376427 -0.498947
v -1.549101 0.431023 -0.498151
v -1.531974 -0.608330 0.398714
v -1.532306 -0.555038 0.453911
v -1.588348 -0.554437 0.399829
v -1.599149 0.360378 0.415902
v -1.543098 0.359776 0.469989
v -1.544039 0.414973 0.416697
v 2.613577 -0.511745 -0.526931
v 2.563522 -0.582382 0.387117
v 2.558467 -0.566341 -0.527728
v 2.618632 -0.527787 0.387912
v 2.607837 0.387027 0.403987
v 2.546392 0.456963 -0.509748
v 2.551447 0.440913 0.405098
v 2.602781 0.403077 -0.510860
v -1.588348 -0.554437 0.399829
v -1.593417 -0.538395 -0.515019
v -1.537023 -0.592280 -0.516130
v -1.531974 -0.608330 0.398714
v -1.604213 0.376427 -0.498947
v -1.599149 0.360378 0.415902
v -1.544039 0.414973 0.416697
v -1.549101 0.431023 -0.498151
v 2.563182 -0.529092 0.442315
v -1.532306 -0.555038 0.453911
v -1.531974 -0.608330 0.398714
v 2.563522 -0.582382 0.387117
v 2.551447 0.440913 0.405098
v -1.544039 0.414973 0.416697
v -1.543098 0.359776 0.469989
v 2.552386 0.385731 0.458386
v -1.537947 -0.537097 -0.569414
v 2.557528 -0.511146 -0.581019
v 2.558467 -0.566341 -0.527728
v -1.537023 -0.592280 -0.516130
v -1.549101 0.431023 -0.498151
v 2.546392 0.456963 -0.509748
v 2.546733 0.403663 -0.564941
v -1.548745 0.377726 -0.553341
v 2.546733 0.403663 -0.564941
v -1.537947 -0.537097 -0.569414
v -1.548745 0.377726 -0.553341
v 2.557528 -0.511146 -0.581019
v -1.544039 0.414973 0.416697
v 2.551447 0.440913 0.405098
v 2.546392 0.456963 -0.509748
v -1.549101 0.431023 -0.498151
v -1.543098 0.359776 0.469989
v 2.563182 -0.529092 0.442315
v 2.552386 0.385731 0.458386
v -1.532306 -0.555038 0.453911
v -1.537023 -0.592280 -0.516130
v 2.558467 -0.566341 -0.527728
v 2.563522 -0.582382 0.387117
v -1.531974 -0.608330 0.398714
v -1.615031 0.378696 -0.501176
v -1.599164 -0.556845 0.402115
v -1.609967 0.362549 0.418290
v -1.604224 -0.540707 -0.517345
v 2.618644 0.389340 0.406315
v 2.624394 -0.513921 -0.529320
v 2.613587 0.405470 -0.513146
v 2.629455 -0.530056 0.390142
v 2.563633 -0.573399 -0.530629
v 2.562589 -0.513780 -0.588267
v 2.624394 -0.513921 -0.529320
v 2.613587 0.405470 -0.513146
v 2.551765 0.406620 -0.572083
v 2.551424 0.464173 -0.512417
v 2.568758 -0.589546 0.389743
v 2.629455 -0.530056 0.390142
v 2.568332 -0.532000 0.449383
v 2.557506 0.388400 0.465568
v 2.618644 0.389340 0.406315
v 2.556514 0.448039 0.408016
v -1.542085 -0.599404 -0.519046
v -1.604224 -0.540707 -0.517345
v -1.543070 -0.539765 -0.576597
v -1.553906 0.380631 -0.560414
v -1.615031 0.378696 -0.501176
v -1.554338 0.438181 -0.500778
v -1.536988 -0.615544 0.401392
v -1.537336 -0.557981 0.461052
v -1.599164 -0.556845 0.402115
v -1.609967 0.362549 0.418290
v -1.548162 0.362411 0.477236
v -1.549207 0.422035 0.419597
v 2.624394 -0.513921 -0.529320
v 2.568758 -0.589546 0.389743
v 2.563633 -0.573399 -0.530629
v 2.629455 -0.530056 0.390142
v 2.618644 0.389340 0.406315
v 2.551424 0.464173 -0.512417
v 2.556514 0.448039 0.408016
v 2.613587 0.405470 -0.513146
v -1.599164 -0.556845 0.402115
v -1.604224 -0.540707 -0.517345
v -1.542085 -0.599404 -0.519046
v -1.536988 -0.615544 0.401392
v -1.615031 0.378696 -0.501176
v -1.609967 0.362549 0.418290
v -1.549207 0.422035 0.419597
v -1.554338 0.438181 -0.500778
v 2.568332 -0.532000 0.449383
v -1.537336 -0.557981 0.461052
v -1.536988 -0.615544 0.401392
v 2.568758 -0.589546 0.389743
v 2.556514 0.448039 0.408016
v -1.549207 0.422035 0.419597
v -1.548162 0.362411 0.477236
v 2.557506 0.388400 0.465568
v -1.543070 -0.539765 -0.576597
v 2.562589 -0.513780 -0.588267
v 2.563633 -0.573399 -0.530629
v -1.542085 -0.599404 -0.519046
v -1.554338 0.438181 -0.500778
v 2.551424 0.464173 -0.512417
v 2.551765 0.406620 -0.572083
v -1.553906 0.380631 -0.560414
v 2.551765 0.406620 -0.572083
v -1.543070 -0.539765 -0.576597
v -1.553906 0.380631 -0.560414
v 2.562589 -0.513780 -0.588267
v -1.549207 0.422035 0.419597
v 2.556514 0.448039 0.408016
v 2.551424 0.464173 -0.512417
v -1.554338 0.438181 -0.500778
v -1.548162 0.362411 0.477236
v 2.568332 -0.532000 0.449383
v 2.557506 0.388400 0.465568
v -1.537336 -0.557981 0.461052
v -1.542085 -0.599404 -0.519046
v 2.563633 -0.573399 -0.530629
v 2.568758 -0.589546 0.389743
v -1.536988 -0.615544 0.401392
vn -0.8756 0.3444 -0.3387
vn -0.8662 -0.3618 0.3446
vn -0.8724 0.3293 0.3613
vn -0.8689 -0.3489 -0.3512
vn 0.8689 0.3489 0.3512
vn 0.8723 -0.3293 -0.3614
vn 0.8662 0.3619 -0.3446
vn 0.8756 -0.3445 0.3386
vn 0.3392 -0.8700 -0.3578
vn 0.3301 -0.3224 -0.8872
vn 0.8723 -0.3294 -0.3615
vn 0.8661 0.3618 -0.3448
vn 0.3281 0.3603 -0.8732
vn 0.3288 0.8856 -0.3280
vn 0.3433 -0.8818 0.3234
vn 0.8755 -0.3445 0.3388
vn 0.3378 -0.3580 0.8705
vn 0.3354 0.3284 0.8830
vn 0.8688 0.3489 0.3514
vn 0.3307 0.8734 0.3575
vn -0.3307 -0.8734 -0.3575
vn -0.8688 -0.3489 -0.3514
vn -0.3354 -0.3283 -0.8830
vn -0.3378 0.3581 -0.8704
vn -0.8755 0.3445 -0.3387
vn -0.3433 0.8818 -0.3233
vn -0.3288 -0.8856 0.3279
vn -0.3281 -0.3603 0.8732
vn -0.8662 -0.3618 0.3448
vn -0.8723 0.3293 0.3615
vn -0.3301 0.3223 0.8872
vn -0.3391 0.8700 0.3578
vn 0.8723 -0.3295 -0.3613
vn 0.3433 -0.8818 0.3233
vn 0.3391 -0.8700 -0.3578
vn 0.8755 -0.3446 0.3387
vn 0.8688 0.3490 0.3512
vn 0.3288 0.8856 -0.3279
vn 0.8661 0.3620 -0.3447
vn -0.8661 -0.3620 0.3446
vn -0.8688 -0.3490 -0.3513
vn -0.3288 -0.8856 0.3281
vn -0.8756 0.3446 -0.3385
vn -0.8723 0.3295 0.3613
vn -0.3433 0.8818 -0.3234
vn 0.3377 -0.3580 0.8705
vn -0.3288 -0.8857 0.3279
vn 0.3307 0.8734 0.3574
vn -0.3392 0.8700 0.3577
vn 0.3355 0.3284 0.8830
vn 0.3301 -0.3223 -0.8872
vn 0.3392 -0.8701 -0.3577
vn -0.3308 -0.8734 -0.3575
vn 0.3281 0.3603 -0.8733
vn -0.3354 -0.3284 -0.8830
vn -0.3377 0.3581 -0.8704
vn -0.3301 0.3224 0.8872
vn 0.3378 -0.3581 0.8704
vn -0.8756 0.3445 -0.3387
vn -0.8723 0.3294 0.3613
vn 0.8724 -0.3293 -0.3613
vn 0.8723 -0.3293 -0.3615
vn 0.8661 0.3619 -0.3448
vn 0.3378 -0.3581 0.8705
vn -0.3355 -0.3284 -0.8830
vn -0.8755 0.3445 -0.3388
vn -0.8661 -0.3619 0.3448
vn -0.3392 0.8700 0.3578
vn 0.8723 -0.3294 -0.3613
vn 0.3432 -0.8819 0.3233
vn -0.3307 -0.8734 -0.3574
vn -0.8755 0.3446 -0.3387
vn -0.8722 0.3294 0.3615
vn 0.3377 -0.3581 0.8705
vn 0.3307 0.8735 0.3574
vn -0.3393 0.8700 0.3577
vn 0.3354 0.3283 0.8830
vn 0.3392 -0.8701 -0.3576
vn 0.3281 0.3602 -0.8733
vn -0.3378 0.3581 -0.8705
vn -0.3377 0.3582 -0.8704
vn 0.3432 -0.8818 0.3234
vt 0.372650 0.019678
vt 0.478632 0.130590
vt 0.372650 0.130590
vt 0.478632 0.019678
vt 0.478632 0.481216
vt 0.372650 0.370304
vt 0.478632 0.370304
vt 0.372650 0.481216
vt 0.478632 0.363148
vt 0.478632 0.137746
vt 0.365812 0.363148
vt 0.365812 0.137746
vt 0.140171 0.137746
vt 0.140171 0.363148
vt 0.252991 0.137746
vt 0.252991 0.363148
vt 0.147009 0.137746
vt 0.147009 0.363148
vt 0.259829 0.363148
vt 0.259829 0.137746
vt 0.372650 0.137746
vt 0.372650 0.363148
vt 0.034188 0.363148
vt 0.034188 0.137746
s 1
usemtl Rightarm1Mtl
f 1/1/1 2/2/2 3/3/3
f 2/2/2 1/1/1 4/4/4
s 2
f 5/5/5 6/6/6 7/7/7
f 6/6/6 5/5/5 8/8/8
s 3
f 9/6/9 10/6/10 11/6/11
f 10/6/10 12/7/12 11/6/11
f 12/7/12 10/6/10 13/7/13
f 13/7/13 14/7/14 12/7/12
s 4
f 15/8/15 16/8/16 17/8/17
f 18/5/18 17/8/17 16/8/16
f 16/8/16 19/5/19 18/5/18
f 20/5/20 18/5/18 19/5/19
s 5
f 21/4/21 22/4/22 23/4/23
f 24/1/24 23/4/23 22/4/22
f 22/4/22 25/1/25 24/1/24
f 26/1/26 24/1/24 25/1/25
s 6
f 27/2/27 28/2/28 29/2/29
f 30/3/30 29/2/29 28/2/28
f 28/2/28 31/3/31 30/3/30
f 32/3/32 30/3/30 31/3/31
s 7
f 33/6/33 34/8/34 35/6/35
f 34/8/34 33/6/33 36/8/36
s 8
f 37/5/37 38/7/38 39/5/20
f 38/7/38 37/5/37 40/7/39
s 9
f 41/2/40 42/4/41 43/4/21
f 43/4/21 44/2/42 41/2/40
s 10
f 45/1/43 46/3/44 47/3/32
f 47/3/32 48/1/45 45/1/43
s 11
f 49/9/46 50/10/28 51/10/47
f 49/9/46 51/10/47 52/9/34
s 12
f 53/11/48 54/12/49 55/12/31
f 53/11/48 55/12/31 56/11/50
s 13
f 57/13/23 58/14/51 59/14/52
f 57/13/23 59/14/52 60/13/53
s 14
f 61/15/26 62/16/38 63/16/54
f 61/15/26 63/16/54 64/15/24
s 15
f 65/16/13 66/17/55 67/15/56
f 66/17/55 65/16/13 68/18/51
s 16
f 69/12/32 70/11/20 71/19/14
f 69/12/32 71/19/14 72/20/26
s 17
f 73/21/57 74/9/58 75/22/18
f 74/9/58 73/21/57 76/10/28
s 18
f 77/13/21 78/14/52 79/23/34
f 77/13/21 79/23/34 80/24/27
s 19
usemtl Rightarm2Mtl
f 81/1/59 82/2/2 83/3/60
f 82/2/2 81/1/59 84/4/4
s 20
f 85/5/5 86/6/61 87/7/7
f 86/6/61 85/5/5 88/8/8
s 21
f 89/6/9 90/6/51 91/6/62
f 90/6/51 92/7/63 91/6/62
f 92/7/63 90/6/51 93/7/13
f 93/7/13 94/7/38 92/7/63
s 22
f 95/8/15 96/8/16 97/8/64
f 98/5/18 97/8/64 96/8/16
f 96/8/16 99/5/19 98/5/18
f 100/5/20 98/5/18 99/5/19
s 23
f 101/4/21 102/4/22 103/4/65
f 104/1/56 103/4/65 102/4/22
f 102/4/22 105/1/66 104/1/56
f 106/1/26 104/1/56 105/1/66
s 24
f 107/2/27 108/2/28 109/2/67
f 110/3/30 109/2/67 108/2/28
f 108/2/28 111/3/31 110/3/30
f 112/3/68 110/3/30 111/3/31
s 25
f 113/6/69 114/8/70 115/6/9
f 114/8/70 113/6/69 116/8/36
s 26
f 117/5/5 118/7/14 119/5/20
f 118/7/14 117/5/5 120/7/7
s 27
f 121/2/40 122/4/41 123/4/71
f 123/4/71 124/2/27 121/2/40
s 28
f 125/1/72 126/3/73 127/3/32
f 127/3/32 128/1/26 125/1/72
s 29
f 129/9/74 130/10/28 131/10/27
f 129/9/74 131/10/27 132/9/34
s 30
f 133/11/75 134/12/76 135/12/31
f 133/11/75 135/12/31 136/11/77
s 31
f 137/13/23 138/14/51 139/14/78
f 137/13/23 139/14/78 140/13/21
s 32
f 141/15/26 142/16/38 143/16/79
f 141/15/26 143/16/79 144/15/80
s 33
f 145/16/13 146/17/55 147/15/81
f 146/17/55 145/16/13 148/18/10
s 34
f 149/12/32 150/11/20 151/19/38
f 149/12/32 151/19/38 152/20/26
s 35
f 153/21/31 154/9/64 155/22/18
f 154/9/64 153/21/31 156/10/28
s 36
f 157/13/21 158/14/35 159/23/82
f 157/13/21 159/23/82 160/24/27
o Cube.002
v -1.337211 0.338914 -0.905898
v -1.337211 0.850925 -0.393888
v -0.557312 0.338914 -0.905898
v -0.402534 0.594919 -0.649893
v -0.557312 0.850925 -0.393888
v -2.713167 0.376893 -0.844668
v -2.550525 0.527658 -0.693904
v -1.413456 0.376893 -0.844668
v -1.413456 0.527658 -0.693904
v -2.713167 0.284929 -0.752704
v -2.550525 0.435693 -0.601940
v -1.413456 0.284929 -0.752704
v -1.413456 0.435693 -0.601940
v -1.337211 0.216925 -0.783909
v -1.337211 0.728935 -0.271898
v -0.557312 0.216925 -0.783909
v -0.402534 0.472930 -0.527904
v -0.557312 0.728935 -0.271898
v -1.235022 0.361314 -0.794122
v -1.235022 0.739148 -0.416287
v -0.659501 0.361314 -0.794122
v -0.545284 0.550231 -0.605205
v -0.659501 0.739148 -0.416287
v -1.235022 0.271293 -0.704101
v -1.235022 0.649127 -0.326266
v -0.659501 0.271293 -0.704101
v -0.545284 0.460210 -0.515183
v -0.659501 0.649127 -0.326266
v -0.352554 0.338914 -0.905898
v -0.207084 0.594919 -0.649893
v -0.171965 0.338914 -0.905898
v -0.017186 0.594919 -0.649893
v -0.171965 0.850925 -0.393888
v -0.352554 0.850925 -0.393888
v -0.352554 0.216925 -0.783909
v -0.171965 0.216925 -0.783909
v -0.207084 0.472930 -0.527904
v -0.352554 0.728935 -0.271898
v -0.171965 0.728935 -0.271898
v -0.017186 0.472930 -0.527904
v -1.449672 0.318362 -0.939307
v -1.540751 0.601348 -0.656321
v -1.250051 0.318362 -0.939307
v -1.343942 0.601348 -0.656321
v -1.250051 0.884333 -0.373335
v -1.449672 0.884333 -0.373335
v -1.449672 0.183516 -0.804461
v -1.250051 0.183516 -0.804461
v -1.540751 0.466502 -0.521475
v -1.449672 0.749487 -0.238490
v -1.250051 0.749487 -0.238490
v -1.343942 0.466502 -0.521475
v -2.713167 0.641637 -0.579925
v -2.550525 0.792401 -0.429160
v -1.413456 0.641637 -0.579925
v -1.413456 0.792401 -0.429160
v -2.713167 0.549673 -0.487960
v -2.550525 0.700437 -0.337196
v -1.413456 0.549673 -0.487960
v -1.413456 0.700437 -0.337196
v -2.550525 0.527658 -0.693904
v -2.713167 0.376893 -0.844668
v -2.550525 0.435693 -0.601940
v -2.713167 0.284929 -0.752704
v -2.550525 0.527658 -0.693904
v -1.413456 0.527658 -0.693904
v -2.550525 0.435693 -0.601940
v -1.413456 0.435693 -0.601940
v -2.713167 0.376893 -0.844668
v -1.413456 0.376893 -0.844668
v -2.713167 0.284929 -0.752704
v -1.413456 0.284929 -0.752704
v -1.413456 0.527658 -0.693904
v -1.413456 0.376893 -0.844668
v -1.413456 0.435693 -0.601940
v -1.413456 0.284929 -0.752704
v -1.337211 0.850925 -0.393888
v -1.337211 0.338914 -0.905898
v -1.337211 0.728935 -0.271898
v -1.337211 0.216925 -0.783909
v -1.337211 0.850925 -0.393888
v -0.557312 0.850925 -0.393888
v -1.337211 0.728935 -0.271898
v -0.557312 0.728935 -0.271898
v -1.337211 0.338914 -0.905898
v -0.557312 0.338914 -0.905898
v -1.337211 0.216925 -0.783909
v -0.557312 0.216925 -0.783909
v -0.557312 0.850925 -0.393888
v -0.402534 0.594919 -0.649893
v -0.557312 0.728935 -0.271898
v -0.402534 0.472930 -0.527904
v -0.557312 0.216925 -0.783909
v -0.557312 0.338914 -0.905898
v -1.235022 0.739148 -0.416287
v -1.235022 0.361314 -0.794122
v -1.235022 0.649127 -0.326266
v -1.235022 0.271293 -0.704101
v -1.235022 0.739148 -0.416287
v -0.659501 0.739148 -0.416287
v -1.235022 0.649127 -0.326266
v -0.659501 0.649127 -0.326266
v -1.235022 0.361314 -0.794122
v -0.659501 0.361314 -0.794122
v -1.235022 0.271293 -0.704101
v -0.659501 0.271293 -0.704101
v -0.659501 0.739148 -0.416287
v -0.545284 0.550231 -0.605205
v -0.659501 0.649127 -0.326266
v -0.545284 0.460210 -0.515183
v -0.659501 0.271293 -0.704101
v -0.659501 0.361314 -0.794122
v -0.207084 0.594919 -0.649893
v -0.352554 0.338914 -0.905898
v -0.352554 0.850925 -0.393888
v -0.352554 0.728935 -0.271898
v -0.207084 0.472930 -0.527904
v -0.352554 0.216925 -0.783909
v -0.352554 0.338914 -0.905898
v -0.171965 0.338914 -0.905898
v -0.352554 0.216925 -0.783909
v -0.171965 0.216925 -0.783909
v -0.352554 0.728935 -0.271898
v -0.171965 0.728935 -0.271898
v -0.352554 0.850925 -0.393888
v -0.171965 0.850925 -0.393888
v -0.171965 0.850925 -0.393888
v -0.017186 0.594919 -0.649893
v -0.171965 0.728935 -0.271898
v -0.017186 0.472930 -0.527904
v -0.171965 0.216925 -0.783909
v -0.171965 0.338914 -0.905898
v -1.540751 0.601348 -0.656321
v -1.449672 0.318362 -0.939307
v -1.449672 0.884333 -0.373335
v -1.449672 0.749487 -0.238490
v -1.540751 0.466502 -0.521475
v -1.449672 0.183516 -0.804461
v -1.449672 0.318362 -0.939307
v -1.250051 0.318362 -0.939307
v -1.449672 0.183516 -0.804461
v -1.250051 0.183516 -0.804461
v -1.449672 0.749487 -0.238490
v -1.250051 0.749487 -0.238490
v -1.449672 0.884333 -0.373335
v -1.250051 0.884333 -0.373335
v -1.250051 0.884333 -0.373335
v -1.343942 0.601348 -0.656321
v -1.250051 0.749487 -0.238490
v -1.343942 0.466502 -0.521475
v -1.250051 0.183516 -0.804461
v -1.250051 0.318362 -0.939307
v -2.550525 0.792401 -0.429160
v -2.713167 0.641637 -0.579925
v -2.550525 0.700437 -0.337196
v -2.713167 0.549673 -0.487960
v -2.550525 0.792401 -0.429160
v -1.413456 0.792401 -0.429160
v -2.550525 0.700437 -0.337196
v -1.413456 0.700437 -0.337196
v -2.713167 0.641637 -0.579925
v -1.413456 0.641637 -0.579925
v -2.713167 0.549673 -0.487960
v -1.413456 0.549673 -0.487960
v -1.413456 0.792401 -0.429160
v -1.413456 0.641637 -0.579925
v -1.413456 0.700437 -0.337196
v -1.413456 0.549673 -0.487960
vn -0.0000 0.7071 -0.7071
vn -0.0000 -0.7071 0.7071
vn -0.7951 0.4289 0.4289
vn -0.0000 0.7071 0.7071
vn -0.0000 -0.7071 -0.7071
vn 1.0000 -0.0000 -0.0000
vn -1.0000 -0.0000 -0.0000
vn 0.9195 -0.2780 -0.2780
vn 0.7443 -0.4722 0.4722
vn -0.9279 -0.2636 -0.2636
vn -0.9751 0.1569 0.1569
vn 0.9736 0.1615 0.1615
vn 0.9195 0.2780 0.2780
vn -0.9279 0.2636 0.2636
vn -0.9751 -0.1569 -0.1569
vn 0.9736 -0.1615 -0.1615
vt 0.375000 0.500000
vt 0.375000 0.750000
vt 0.125000 0.750000
vt 0.125000 0.500000
vt 0.875000 0.500000
vt 0.625000 0.750000
vt 0.625000 0.500000
vt 0.625000 0.625000
vt 0.125000 0.625000
vt 0.875000 0.625000
vt 0.375000 0.625000
vt 0.875000 0.750000
vt 0.625000 0.000000
vt 0.375000 0.250000
vt 0.375000 0.000000
vt 0.625000 0.250000
vt 0.375000 1.000000
vt 0.625000 0.125000
vt 0.375000 0.125000
vt 0.625000 1.000000
s 0
f 165/25/83 163/26/83 161/27/83
f 167/28/83 168/26/83 166/27/83
f 171/29/84 172/30/84 173/31/84
f 175/29/84 176/30/84 177/32/84
f 183/25/83 181/26/83 179/27/83
f 185/29/84 186/30/84 187/32/84
f 193/25/83 191/26/83 190/33/83
f 197/34/84 196/30/84 200/32/84
f 204/35/83 201/27/83 202/33/83
f 210/29/84 207/36/84 212/32/84
f 214/28/83 215/26/83 213/27/83
f 218/29/84 219/30/84 220/31/84
f 224/37/85 221/38/85 222/39/85
f 227/40/86 226/25/86 225/38/86
f 232/30/87 229/41/87 230/26/87
f 235/31/88 234/26/88 233/25/88
f 240/37/89 237/38/89 238/39/89
f 243/40/86 242/25/86 241/38/86
f 248/30/87 245/41/87 246/26/87
f 252/32/90 254/26/90 250/35/90
f 258/37/89 255/38/89 256/39/89
f 261/40/86 260/25/86 259/38/86
f 266/30/87 263/41/87 264/26/87
f 269/31/91 271/30/91 268/35/91
f 277/42/92 275/38/92 273/43/92
f 282/30/87 279/41/87 280/26/87
f 283/40/86 286/25/86 285/38/86
f 290/32/90 292/26/90 288/35/90
f 297/42/93 295/38/93 293/43/93
f 302/30/87 299/41/87 300/26/87
f 303/40/86 306/25/86 305/38/86
f 310/32/94 312/26/94 308/35/94
f 314/39/85 315/40/85 313/38/85
f 319/40/86 318/25/86 317/38/86
f 324/30/87 321/41/87 322/26/87
f 327/31/88 326/26/88 325/25/88
f 161/27/83 162/28/83 165/25/83
f 165/25/83 164/35/83 163/26/83
f 167/28/83 169/25/83 168/26/83
f 171/29/84 170/36/84 172/30/84
f 177/32/84 178/31/84 175/29/84
f 175/29/84 174/36/84 176/30/84
f 179/27/83 180/28/83 183/25/83
f 183/25/83 182/35/83 181/26/83
f 187/32/84 188/31/84 185/29/84
f 185/29/84 184/36/84 186/30/84
f 190/33/83 194/28/83 193/25/83
f 193/25/83 192/35/83 191/26/83
f 191/26/83 189/27/83 190/33/83
f 200/32/84 199/31/84 198/29/84
f 197/34/84 195/36/84 196/30/84
f 200/32/84 198/29/84 197/34/84
f 202/33/83 206/28/83 205/25/83
f 204/35/83 203/26/83 201/27/83
f 202/33/83 205/25/83 204/35/83
f 212/32/84 211/31/84 210/29/84
f 210/29/84 209/34/84 207/36/84
f 207/36/84 208/30/84 212/32/84
f 214/28/83 216/25/83 215/26/83
f 218/29/84 217/36/84 219/30/84
f 224/37/85 223/40/85 221/38/85
f 227/40/86 228/31/86 226/25/86
f 232/30/87 231/44/87 229/41/87
f 235/31/88 236/30/88 234/26/88
f 240/37/89 239/40/89 237/38/89
f 243/40/86 244/31/86 242/25/86
f 248/30/87 247/44/87 245/41/87
f 250/35/95 249/25/95 251/31/95
f 252/32/90 253/30/90 254/26/90
f 250/35/95 251/31/95 252/32/95
f 258/37/89 257/40/89 255/38/89
f 261/40/86 262/31/86 260/25/86
f 266/30/87 265/44/87 263/41/87
f 268/35/95 267/25/95 269/31/95
f 269/31/83 270/32/83 271/30/83
f 271/30/90 272/26/90 268/35/90
f 273/43/96 274/39/96 278/37/96
f 277/42/92 276/40/92 275/38/92
f 273/43/96 278/37/96 277/42/96
f 282/30/87 281/44/87 279/41/87
f 283/40/86 284/31/86 286/25/86
f 288/35/95 287/25/95 289/31/95
f 290/32/90 291/30/90 292/26/90
f 288/35/95 289/31/95 290/32/95
f 293/43/97 294/39/97 298/37/97
f 297/42/93 296/40/93 295/38/93
f 293/43/97 298/37/97 297/42/97
f 302/30/87 301/44/87 299/41/87
f 303/40/86 304/31/86 306/25/86
f 308/35/98 307/25/98 309/31/98
f 310/32/94 311/30/94 312/26/94
f 308/35/98 309/31/98 310/32/98
f 314/39/85 316/37/85 315/40/85
f 319/40/86 320/31/86 318/25/86
f 324/30/87 323/44/87 321/41/87
f 327/31/88 328/30/88 326/26/88
o Cube
v -1.166661 0.365254 -0.781733
v -1.166661 0.425981 -0.842460
v -1.166661 0.734032 -0.412955
v -1.166661 0.794758 -0.473682
v -0.645131 0.365254 -0.781733
v -0.645131 0.425981 -0.842460
v -0.645131 0.734032 -0.412955
v -0.645131 0.794758 -0.473682
v -1.166661 0.610370 -0.658071
v -1.166661 0.549643 -0.597344
v -0.538596 0.610370 -0.658071
v -0.538596 0.549643 -0.597344
vn -1.0000 -0.0000 -0.0000
vn -0.0000 0.7071 0.7071
vn 0.9257 -0.2674 -0.2674
vn -0.0000 -0.7071 -0.7071
vn -0.0000 -0.7071 0.7071
vn -0.0000 0.7071 -0.7071
vn 0.9257 0.2674 0.2674
vt 0.625000 0.125000
vt 0.375000 0.250000
vt 0.375000 0.125000
vt 0.625000 0.250000
vt 0.375000 0.500000
vt 0.625000 0.625000
vt 0.375000 0.750000
vt 0.375000 0.625000
vt 0.625000 0.750000
vt 0.375000 1.000000
vt 0.125000 0.625000
vt 0.875000 0.625000
vt 0.375000 0.000000
vt 0.625000 0.000000
vt 0.625000 0.500000
vt 0.625000 1.000000
vt 0.125000 0.500000
vt 0.125000 0.750000
vt 0.875000 0.500000
vt 0.875000 0.750000
s 0
f 337/45/99 338/47/99 331/46/99
f 332/48/100 331/46/100 335/49/100
f 339/50/101 340/52/101 333/51/101
f 334/53/102 333/51/102 329/54/102
f 335/49/103 338/55/103 333/51/103
f 337/56/104 339/50/104 334/53/104
f 338/47/99 330/58/99 329/57/99
f 337/45/99 331/46/99 332/48/99
f 338/47/99 337/45/99 330/58/99
f 332/48/100 335/49/100 336/59/100
f 340/52/105 336/59/105 335/49/105
f 339/50/101 333/51/101 334/53/101
f 340/52/105 339/50/105 336/59/105
f 334/53/102 329/54/102 330/60/102
f 338/55/103 335/49/103 331/61/103
f 335/49/103 333/51/103 340/52/103
f 333/51/103 338/55/103 329/62/103
f 339/50/104 332/63/104 336/59/104
f 337/56/104 334/53/104 330/64/104
f 339/50/104 337/56/104 332/63/104
