# Blender 5.1.2
# www.blender.org
mtllib Keyrgy Pistols1.mtl
o Cube.003
v -0.609900 0.440002 0.118025
v -0.527415 0.382746 0.118025
v -0.347994 0.382746 0.118025
v -0.327215 0.440002 0.118025
v -0.290775 0.401159 0.118025
v -0.107463 0.401159 0.118025
v -0.309792 0.347390 0.118025
v -0.072325 0.347390 0.118025
v -0.609900 0.440002 0.073025
v -0.327215 0.440002 0.073025
v -0.290775 0.401159 0.073025
v -0.107463 0.401159 0.073025
v -0.674204 0.297069 0.118025
v -0.570693 0.296476 0.118025
v -0.527415 0.210206 0.118025
v -0.609900 0.154135 0.118025
v -0.428227 0.210206 0.118025
v -0.527415 0.210206 0.088740
v -0.428227 0.210206 0.088740
v -0.329040 0.210206 0.118025
v -0.284496 0.179888 0.118025
v -0.329040 0.210206 0.088740
v -0.284496 0.179888 0.088740
v 0.140085 0.440002 0.118025
v 0.102310 0.401159 0.118025
v 0.162064 0.382746 0.118025
v 0.265827 0.382746 0.118025
v 0.122462 0.347390 0.118025
v 0.394974 0.440002 0.118025
v 0.485280 0.382746 0.118025
v 0.541243 0.440002 0.118025
v 0.140085 0.440002 0.073025
v 0.102310 0.401159 0.073025
v 0.394974 0.440002 0.073025
v 0.541243 0.440002 0.073025
v 0.125959 0.179888 0.118025
v 0.167623 0.210206 0.118025
v 0.312972 0.210206 0.118025
v 0.125959 0.179888 0.088740
v 0.167623 0.210206 0.088740
v 0.312972 0.210206 0.088740
v 0.568429 0.296476 0.118025
v 0.664788 0.297069 0.118025
v 0.485280 0.210206 0.118025
v 0.541243 0.154135 0.118025
v 0.485280 0.210206 0.088740
v -0.609900 0.440002 0.028025
v -0.527415 0.382746 0.028025
v -0.347994 0.382746 0.028025
v -0.327215 0.440002 0.028025
v -0.290775 0.401159 0.028025
v -0.107463 0.401159 0.028025
v -0.327215 0.440002 -0.016975
v -0.290775 0.401159 -0.016975
v -0.309792 0.347390 0.028025
v -0.072325 0.347390 0.028025
v -0.609900 0.440002 -0.016975
v -0.609900 0.440002 -0.061975
v -0.527415 0.382746 -0.061975
v -0.347994 0.382746 -0.061975
v -0.107463 0.401159 -0.016975
v -0.327215 0.440002 -0.061975
v -0.290775 0.401159 -0.061975
v -0.107463 0.401159 -0.061975
v -0.309792 0.347390 -0.061975
v -0.072325 0.347390 -0.061975
v -0.527415 0.210206 0.028025
v -0.428227 0.210206 0.028025
v -0.329040 0.210206 0.028025
v -0.284496 0.179888 0.028025
v -0.674204 0.297069 -0.061975
v -0.570693 0.296476 -0.061975
v -0.527415 0.210206 -0.032689
v -0.428227 0.210206 -0.032689
v -0.527415 0.210206 -0.061975
v -0.609900 0.154135 -0.061975
v -0.428227 0.210206 -0.061975
v -0.329040 0.210206 -0.032689
v -0.284496 0.179888 -0.032689
v -0.329040 0.210206 -0.061975
v -0.284496 0.179888 -0.061975
v 0.140085 0.440002 0.028025
v 0.102310 0.401159 0.028025
v 0.162064 0.382746 0.028025
v 0.265827 0.382746 0.028025
v 0.102310 0.401159 -0.016975
v 0.122462 0.347390 0.028025
v 0.394974 0.440002 0.028025
v 0.485280 0.382746 0.028025
v 0.541243 0.440002 0.028025
v 0.140085 0.440002 -0.016975
v 0.140085 0.440002 -0.061975
v 0.102310 0.401159 -0.061975
v 0.162064 0.382746 -0.061975
v 0.265827 0.382746 -0.061975
v 0.122462 0.347390 -0.061975
v 0.394974 0.440002 -0.016975
v 0.541243 0.440002 -0.016975
v 0.394974 0.440002 -0.061975
v 0.485280 0.382746 -0.061975
v 0.541243 0.440002 -0.061975
v 0.125959 0.179888 0.028025
v 0.167623 0.210206 0.028025
v 0.312972 0.210206 0.028025
v 0.485280 0.210206 0.028025
v 0.125959 0.179888 -0.032689
v 0.167623 0.210206 -0.032689
v 0.312972 0.210206 -0.032689
v 0.125959 0.179888 -0.061975
v 0.167623 0.210206 -0.061975
v 0.312972 0.210206 -0.061975
v 0.568429 0.296476 -0.061975
v 0.664788 0.297069 -0.061975
v 0.485280 0.210206 -0.032689
v 0.485280 0.210206 -0.061975
v 0.541243 0.154135 -0.061975
v -0.571595 -0.112053 0.118025
v -0.535245 0.085594 0.118025
v -0.733309 -0.363785 0.118025
v -0.571595 -0.112053 -0.061975
v -0.535245 0.085594 -0.061975
v -0.733309 -0.363785 -0.061975
v -0.565627 0.060042 0.118025
v -0.280069 0.060042 0.118025
v -0.212685 -0.011332 0.118025
v -0.208428 -0.011332 0.118025
v -0.217432 -0.019535 0.118025
v -0.091173 -0.019535 0.118025
v -0.246635 -0.070007 0.118025
v -0.681764 -0.384065 0.118025
v -0.611810 -0.289864 0.118025
v -0.373846 -0.289864 0.118025
v -0.329784 -0.384065 0.118025
v 0.169661 0.080465 0.118025
v 0.101300 0.003423 0.118025
v -0.024482 -0.070007 0.118025
v 0.169661 -0.073618 0.118025
v 0.478972 0.155275 0.118025
v 0.429479 0.080465 0.118025
v 0.497841 0.003423 0.118025
v 0.602517 0.005972 0.118025
v 0.429479 -0.073618 0.118025
v 0.036193 -0.143332 0.118025
v 0.478972 -0.143332 0.118025
v -0.565627 0.060042 -0.061975
v -0.280069 0.060042 -0.061975
v -0.212685 -0.011332 -0.061975
v -0.208428 -0.011332 -0.061975
v -0.217432 -0.019535 -0.061975
v -0.091173 -0.019535 -0.061975
v -0.246635 -0.070007 -0.061975
v -0.681764 -0.384065 -0.061975
v -0.611810 -0.289864 -0.061975
v -0.373846 -0.289864 -0.061975
v -0.329784 -0.384065 -0.061975
v 0.169661 0.080465 -0.061975
v 0.101300 0.003423 -0.061975
v -0.024482 -0.070007 -0.061975
v 0.169661 -0.073618 -0.061975
v 0.478972 0.155275 -0.061975
v 0.429479 0.080465 -0.061975
v 0.497841 0.003423 -0.061975
v 0.602517 0.005972 -0.061975
v 0.429479 -0.073618 -0.061975
v 0.036193 -0.143332 -0.061975
v 0.478972 -0.143332 -0.061975
v -0.738450 -0.320075 0.118025
v -0.738450 -0.320075 -0.061975
v -0.539944 0.060042 -0.061975
v -0.539813 0.060759 -0.061975
v -0.539944 0.060042 0.118025
v -0.706050 -0.321352 -0.061975
v -0.687443 -0.292388 -0.061975
v -0.683419 -0.286123 -0.061975
v -0.637538 -0.214703 -0.061975
v -0.706050 -0.321352 0.118025
v -0.637538 -0.214703 0.118025
v -0.624436 0.085594 0.118025
v -0.624436 0.085594 -0.061975
v -0.613568 0.155275 0.118025
v -0.613568 0.155275 -0.061975
v -0.124210 -0.070007 0.118025
v -0.246635 -0.070007 0.118025
v -0.124210 -0.070007 -0.061975
v -0.246635 -0.070007 -0.061975
v -0.731919 -0.254550 0.118025
v -0.731919 -0.254550 -0.061975
v -0.213769 -0.019535 0.118025
v -0.680116 -0.090322 0.118025
v -0.680116 -0.090322 -0.061975
v -0.633953 0.024580 0.118025
v -0.633953 0.024580 -0.061975
v -0.546507 0.060042 -0.061975
v -0.731380 -0.249137 0.118025
v -0.731380 -0.249137 -0.061975
v -0.715306 -0.111695 0.118025
v -0.715306 -0.111695 -0.061975
v -0.648919 -0.071376 -0.061975
v -0.648919 -0.071376 0.118025
v -0.546270 0.060579 -0.061975
v -0.683997 -0.251903 -0.061975
v -0.689218 -0.263748 -0.061975
v -0.220723 -0.030214 0.118025
v 0.700880 0.246653 0.048396
v 0.729299 0.246653 0.048396
v 0.759501 0.263357 0.048396
v 0.812940 0.236830 0.048396
v 0.839165 0.236830 0.048396
v 0.782738 0.263357 0.048396
v 0.729299 0.286793 0.048396
v 0.759501 0.286793 0.048396
v 0.744400 0.302134 0.048396
v 0.782738 0.286793 0.048396
v 0.812940 0.286793 0.048396
v 0.797839 0.302134 0.048396
v 0.574434 0.349908 0.053298
v 0.574434 0.355163 0.056107
v 0.574434 0.360865 0.057837
v 0.574434 0.345302 0.049518
v 0.574434 0.362255 0.050850
v 0.574434 0.357889 0.049525
v 0.685377 0.351460 0.065047
v 0.685377 0.358977 0.067327
v 0.685377 0.344532 0.061344
v 0.685377 0.338460 0.056360
v 0.685377 0.333477 0.050288
v 0.700880 0.341539 0.048396
v 0.685377 0.362255 0.050850
v 0.685377 0.357889 0.049525
v 0.574434 0.366795 0.058421
v 0.574434 0.372725 0.057837
v 0.574434 0.378427 0.056107
v 0.574434 0.383682 0.053298
v 0.574434 0.366795 0.051297
v 0.574434 0.371335 0.050850
v 0.574434 0.375701 0.049525
v 0.574434 0.388288 0.049518
v 0.685377 0.366795 0.068097
v 0.685377 0.374613 0.067327
v 0.685377 0.382130 0.065047
v 0.685377 0.389058 0.061344
v 0.685377 0.366795 0.051297
v 0.685377 0.371335 0.050850
v 0.685377 0.375701 0.049525
v 0.685377 0.395130 0.056360
v 0.685377 0.400113 0.050288
v 0.574434 0.341522 0.044912
v 0.574434 0.338713 0.039657
v 0.574434 0.350340 0.044481
v 0.574434 0.353866 0.047375
v 0.574434 0.347445 0.040954
v 0.574434 0.336984 0.033955
v 0.574434 0.345295 0.036931
v 0.574434 0.343971 0.032565
v 0.685377 0.329774 0.043360
v 0.685377 0.350340 0.044481
v 0.685377 0.353866 0.047375
v 0.685377 0.347445 0.040954
v 0.685377 0.327493 0.035843
v 0.685377 0.345295 0.036931
v 0.685377 0.343971 0.032565
v 0.574434 0.379724 0.047375
v 0.574434 0.383250 0.044481
v 0.574434 0.392068 0.044912
v 0.574434 0.386145 0.040954
v 0.574434 0.394877 0.039657
v 0.574434 0.388295 0.036931
v 0.574434 0.396606 0.033955
v 0.574434 0.389619 0.032565
v 0.685377 0.379724 0.047375
v 0.685377 0.383250 0.044481
v 0.685377 0.403816 0.043360
v 0.685377 0.386145 0.040954
v 0.685377 0.388295 0.036931
v 0.685377 0.406097 0.035843
v 0.685377 0.389619 0.032565
v 0.773875 0.349908 0.053298
v 0.773875 0.355163 0.056107
v 0.773875 0.360865 0.057837
v 0.773875 0.345302 0.049518
v 0.773875 0.362255 0.050850
v 0.773875 0.357889 0.049525
v 0.848162 0.351460 0.065047
v 0.848162 0.358977 0.067327
v 0.848162 0.344532 0.061344
v 0.848162 0.338460 0.056360
v 0.848162 0.333477 0.050288
v 0.839165 0.341540 0.048396
v 0.848162 0.362255 0.050850
v 0.848162 0.357889 0.049525
v 0.773875 0.366795 0.058421
v 0.773875 0.372725 0.057837
v 0.773875 0.378427 0.056107
v 0.773875 0.383682 0.053298
v 0.773875 0.366795 0.051297
v 0.773875 0.371335 0.050850
v 0.773875 0.375701 0.049525
v 0.773875 0.388288 0.049518
v 0.848162 0.366795 0.068097
v 0.848162 0.374613 0.067327
v 0.848162 0.382130 0.065047
v 0.848162 0.389058 0.061344
v 0.848162 0.366795 0.051297
v 0.848162 0.371335 0.050850
v 0.848162 0.375701 0.049525
v 0.848162 0.395130 0.056360
v 0.848162 0.400113 0.050288
v 0.773875 0.341522 0.044912
v 0.773875 0.338713 0.039657
v 0.773875 0.350340 0.044481
v 0.773875 0.353866 0.047375
v 0.773875 0.347445 0.040954
v 0.773875 0.336984 0.033955
v 0.773875 0.345295 0.036931
v 0.773875 0.343971 0.032565
v 0.848162 0.329774 0.043360
v 0.848162 0.350340 0.044481
v 0.848162 0.353866 0.047375
v 0.848162 0.347445 0.040954
v 0.848162 0.327493 0.035843
v 0.848162 0.345295 0.036931
v 0.848162 0.343971 0.032565
v 0.773875 0.379724 0.047375
v 0.773875 0.383250 0.044481
v 0.773875 0.392068 0.044912
v 0.773875 0.386145 0.040954
v 0.773875 0.394877 0.039657
v 0.773875 0.388295 0.036931
v 0.773875 0.396606 0.033955
v 0.773875 0.389619 0.032565
v 0.848162 0.379724 0.047375
v 0.848162 0.383250 0.044481
v 0.848162 0.403816 0.043360
v 0.848162 0.386145 0.040954
v 0.848162 0.388295 0.036931
v 0.848162 0.406097 0.035843
v 0.848162 0.389619 0.032565
v 0.700880 0.246653 0.007655
v 0.729299 0.246653 0.007655
v 0.759501 0.263357 0.007655
v 0.812940 0.236830 0.007655
v 0.839165 0.236830 0.007655
v 0.782738 0.263357 0.007655
v 0.729299 0.286793 0.007655
v 0.759501 0.286793 0.007655
v 0.744400 0.302134 0.007655
v 0.782738 0.286793 0.007655
v 0.812940 0.286793 0.007655
v 0.797839 0.302134 0.007655
v 0.574434 0.336400 0.028025
v 0.574434 0.336984 0.022096
v 0.574434 0.343524 0.028025
v 0.574434 0.343971 0.023485
v 0.574434 0.345295 0.019120
v 0.574434 0.338713 0.016394
v 0.574434 0.341522 0.011139
v 0.574434 0.347445 0.015096
v 0.574434 0.350340 0.011570
v 0.574434 0.353866 0.008676
v 0.685377 0.326723 0.028025
v 0.685377 0.327493 0.020208
v 0.685377 0.343524 0.028025
v 0.685377 0.343971 0.023485
v 0.685377 0.345295 0.019120
v 0.685377 0.329774 0.012691
v 0.685377 0.347445 0.015096
v 0.685377 0.350340 0.011570
v 0.685377 0.353866 0.008676
v 0.574434 0.390066 0.028025
v 0.574434 0.389619 0.023485
v 0.574434 0.397190 0.028025
v 0.574434 0.388295 0.019120
v 0.574434 0.396606 0.022096
v 0.574434 0.383250 0.011570
v 0.574434 0.379724 0.008676
v 0.574434 0.394877 0.016394
v 0.574434 0.386145 0.015096
v 0.574434 0.392068 0.011139
v 0.685377 0.390066 0.028025
v 0.685377 0.389619 0.023485
v 0.685377 0.406867 0.028025
v 0.685377 0.388295 0.019120
v 0.685377 0.406097 0.020208
v 0.685377 0.383250 0.011570
v 0.685377 0.379724 0.008676
v 0.685377 0.386145 0.015096
v 0.685377 0.403816 0.012691
v 0.574434 0.345302 0.006533
v 0.574434 0.357889 0.006525
v 0.574434 0.362255 0.005201
v 0.574434 0.349908 0.002753
v 0.574434 0.355163 -0.000056
v 0.574434 0.360865 -0.001786
v 0.685377 0.333477 0.005763
v 0.700880 0.341539 0.007655
v 0.685377 0.338460 -0.000310
v 0.685377 0.357889 0.006525
v 0.685377 0.362255 0.005201
v 0.685377 0.344532 -0.005293
v 0.685377 0.351460 -0.008996
v 0.685377 0.358977 -0.011276
v 0.574434 0.366795 0.004754
v 0.574434 0.371335 0.005201
v 0.574434 0.375701 0.006525
v 0.574434 0.372725 -0.001786
v 0.574434 0.383682 0.002753
v 0.574434 0.378427 -0.000056
v 0.574434 0.388288 0.006533
v 0.574434 0.366795 -0.002370
v 0.685377 0.366795 0.004754
v 0.685377 0.371335 0.005201
v 0.685377 0.375701 0.006525
v 0.685377 0.400113 0.005763
v 0.685377 0.395130 -0.000310
v 0.685377 0.366795 -0.012046
v 0.685377 0.374613 -0.011276
v 0.685377 0.382130 -0.008996
v 0.685377 0.389058 -0.005293
v 0.773875 0.336400 0.028025
v 0.773875 0.336984 0.022096
v 0.773875 0.343524 0.028025
v 0.773875 0.343971 0.023485
v 0.773875 0.345295 0.019120
v 0.773875 0.338713 0.016394
v 0.773875 0.341522 0.011139
v 0.773875 0.347445 0.015096
v 0.773875 0.350340 0.011570
v 0.773875 0.353866 0.008676
v 0.848162 0.326723 0.028025
v 0.848162 0.327493 0.020208
v 0.848162 0.343524 0.028025
v 0.848162 0.343971 0.023485
v 0.848162 0.345295 0.019120
v 0.848162 0.329774 0.012691
v 0.848162 0.347445 0.015096
v 0.848162 0.350340 0.011570
v 0.848162 0.353866 0.008676
v 0.773875 0.390066 0.028025
v 0.773875 0.389619 0.023485
v 0.773875 0.397190 0.028025
v 0.773875 0.388295 0.019120
v 0.773875 0.396606 0.022096
v 0.773875 0.383250 0.011570
v 0.773875 0.379724 0.008676
v 0.773875 0.394877 0.016394
v 0.773875 0.386145 0.015096
v 0.773875 0.392068 0.011139
v 0.848162 0.390066 0.028025
v 0.848162 0.389619 0.023485
v 0.848162 0.406867 0.028025
v 0.848162 0.388295 0.019120
v 0.848162 0.406097 0.020208
v 0.848162 0.383250 0.011570
v 0.848162 0.379724 0.008676
v 0.848162 0.386145 0.015096
v 0.848162 0.403816 0.012691
v 0.773875 0.345302 0.006533
v 0.773875 0.357889 0.006525
v 0.773875 0.362255 0.005201
v 0.773875 0.349908 0.002753
v 0.773875 0.355163 -0.000056
v 0.773875 0.360865 -0.001786
v 0.848162 0.333477 0.005763
v 0.839165 0.341540 0.007655
v 0.848162 0.338460 -0.000310
v 0.848162 0.357889 0.006525
v 0.848162 0.362255 0.005201
v 0.848162 0.344532 -0.005293
v 0.848162 0.351460 -0.008996
v 0.848162 0.358977 -0.011276
v 0.773875 0.366795 0.004754
v 0.773875 0.371335 0.005201
v 0.773875 0.375701 0.006525
v 0.773875 0.372725 -0.001786
v 0.773875 0.383682 0.002753
v 0.773875 0.378427 -0.000056
v 0.773875 0.388288 0.006533
v 0.773875 0.366795 -0.002370
v 0.848162 0.366795 0.004754
v 0.848162 0.371335 0.005201
v 0.848162 0.375701 0.006525
v 0.848162 0.400113 0.005763
v 0.848162 0.395130 -0.000310
v 0.848162 0.366795 -0.012046
v 0.848162 0.374613 -0.011276
v 0.848162 0.382130 -0.008996
v 0.848162 0.389058 -0.005293
vn -0.0000 -0.0000 1.0000
vn 0.7566 -0.6539 -0.0000
vn -0.0000 -0.0000 -1.0000
vn -0.9120 -0.4103 -0.0000
vn -0.0000 1.0000 -0.0000
vn -0.0000 -1.0000 -0.0000
vn 0.7566 0.6539 -0.0000
vn -0.9120 0.4103 -0.0000
vn -0.7169 0.6972 -0.0000
vn 0.7293 0.6842 -0.0000
vn -0.7200 0.6940 -0.0000
vn 0.8938 0.4484 -0.0000
vn -0.7200 -0.6940 -0.0000
vn 0.8938 -0.4484 -0.0000
vn 0.6660 -0.7460 -0.0000
vn -0.6792 -0.7339 -0.0000
vn -0.5884 0.8086 -0.0000
vn 0.5627 0.8267 -0.0000
vn -0.9932 -0.1168 -0.0000
vn 0.9835 -0.1809 -0.0000
vn 0.8414 -0.5405 -0.0000
vn 0.7704 -0.6375 -0.0000
vn 0.7704 0.6375 -0.0000
vn -0.7704 -0.6375 -0.0000
vn -0.9325 -0.3611 -0.0000
vn 0.8367 -0.5477 -0.0000
vn 0.9461 0.3239 -0.0000
vn -0.8656 0.5008 -0.0000
vn -0.7058 -0.7084 -0.0000
vn 0.7480 -0.6637 -0.0000
vn -0.7480 -0.6637 -0.0000
vn -0.7480 0.6637 -0.0000
vn 0.7480 0.6637 -0.0000
vn -0.9951 0.0992 -0.0000
vn -0.5191 0.8547 -0.0000
vn -0.9881 0.1541 -0.0000
vn -0.9932 0.1162 -0.0000
vn -0.0000 0.9952 -0.0980
vn -0.0000 0.9569 -0.2903
vn -0.0000 0.8819 -0.4714
vn -0.0000 0.7730 -0.6344
vn -0.0000 0.6344 -0.7730
vn -0.0000 0.4714 -0.8819
vn -0.0000 0.2903 -0.9569
vn -0.0000 0.0980 -0.9952
vn -0.0000 -0.0980 -0.9952
vn -0.0000 -0.2903 -0.9569
vn -0.0000 -0.4714 -0.8819
vn -0.0000 -0.6344 -0.7730
vn -0.0000 -0.7730 -0.6344
vn -0.0000 -0.8819 -0.4714
vn -0.0000 -0.9569 -0.2903
vn -0.0000 -0.9952 -0.0980
vn -0.0000 -0.9952 0.0980
vn -0.0000 -0.9569 0.2903
vn -0.0000 -0.8819 0.4714
vn -0.0000 -0.7730 0.6344
vn -0.0000 -0.6344 0.7730
vn -0.0000 -0.4714 0.8819
vn -0.0000 -0.2903 0.9569
vn -0.0000 -0.0980 0.9952
vn -0.0000 0.0980 0.9952
vn -0.0000 0.2903 0.9569
vn -0.0000 0.4714 0.8819
vn -0.0000 0.6344 0.7730
vn -0.0000 0.7730 0.6344
vn -0.0000 0.8819 0.4714
vn 1.0000 -0.0000 -0.0000
vn -0.0000 0.9569 0.2903
vn -0.0000 0.9952 0.0980
vn -1.0000 -0.0000 -0.0000
vn 0.7126 -0.7015 -0.0000
vn -0.7126 -0.7015 -0.0000
vn 0.1049 -0.0000 0.9945
vt 0.422728 0.018863
vt 0.412802 0.051734
vt 0.375000 0.062500
vt 0.575647 0.229420
vt 0.625000 0.250000
vt 0.500000 0.250000
vt 0.500000 0.500000
vt 0.499730 0.732021
vt 0.575598 0.728693
vt 0.500000 0.750000
vt 0.575647 0.520580
vt 0.500025 0.516014
vt 0.500000 1.000000
vt 0.625000 0.750000
vt 0.625000 1.000000
vt 0.312500 0.750000
vt 0.375000 0.718750
vt 0.375000 0.750000
vt 0.875000 0.500000
vt 0.625000 0.500000
vt 0.375000 0.375000
vt 0.375000 0.312500
vt 0.375000 0.812500
vt 0.375000 0.875000
vt 0.375000 0.625000
vt 0.312500 0.593750
vt 0.375000 0.593750
vt 0.187500 0.625000
vt 0.250000 0.593750
vt 0.250000 0.625000
vt 0.125000 0.562500
vt 0.187500 0.500000
vt 0.187500 0.562500
vt 0.250000 0.562500
vt 0.312500 0.500000
vt 0.312500 0.562500
vt 0.250000 0.750000
vt 0.187500 0.718750
vt 0.250000 0.718750
vt 0.187500 0.687500
vt 0.250000 0.656250
vt 0.250000 0.687500
vt 0.375000 0.687500
vt 0.312500 0.656250
vt 0.375000 0.656250
vt 0.312500 0.687500
vt 0.312500 0.625000
vt 0.125000 0.687500
vt 0.187500 0.656250
vt 0.125000 0.625000
vt 0.187500 0.750000
vt 0.125000 0.718750
vt 0.250000 0.500000
vt 0.187500 0.593750
vt 0.125000 0.593750
vt 0.375000 0.562500
vt 0.312500 0.718750
vt 0.375000 0.500000
vt 0.625000 0.375000
vt 0.625000 0.343750
vt 0.500000 0.328677
vt 0.500000 0.921323
vt 0.625000 0.906250
vt 0.625000 0.875000
vt 0.375000 0.421323
vt 0.500000 0.421323
vt 0.500000 0.828677
vt 0.375000 0.828677
vt 0.203677 0.593750
vt 0.296323 0.500000
vt 0.203677 0.718750
vt 0.203677 0.750000
vt 0.203677 0.687500
vt 0.203677 0.656250
vt 0.296323 0.656250
vt 0.296323 0.625000
vt 0.203677 0.625000
vt 0.203677 0.562500
vt 0.203677 0.500000
vt 0.296323 0.593750
vt 0.296323 0.562500
vt 0.296323 0.718750
vt 0.296323 0.687500
vt 0.718750 0.531250
vt 0.703677 0.562500
vt 0.718750 0.562500
vt 0.750000 0.734375
vt 0.718750 0.750000
vt 0.750000 0.750000
vt 0.796323 0.515625
vt 0.781250 0.531250
vt 0.796323 0.531250
vt 0.750000 0.562500
vt 0.781250 0.562500
vt 0.750000 0.515625
vt 0.750000 0.531250
vt 0.718750 0.640625
vt 0.703677 0.718750
vt 0.718750 0.718750
vt 0.781250 0.718750
vt 0.750000 0.640625
vt 0.750000 0.718750
vt 0.796323 0.734375
vt 0.781250 0.750000
vt 0.796323 0.750000
vt 0.781250 0.734375
vt 0.796323 0.718750
vt 0.781250 0.640625
vt 0.796323 0.562500
vt 0.796323 0.640625
vt 0.703677 0.640625
vt 0.718750 0.515625
vt 0.703677 0.531250
vt 0.718750 0.500000
vt 0.703677 0.515625
vt 0.750000 0.500000
vt 0.781250 0.515625
vt 0.781250 0.500000
vt 0.796323 0.500000
vt 0.718750 0.734375
vt 0.703677 0.750000
vt 0.703677 0.734375
vt 0.399317 0.250000
vt 0.375000 0.207859
vt 0.426532 0.231897
vt 0.481608 0.107881
vt 0.484922 0.147058
vt 0.375000 0.000000
vt 0.625000 0.088865
vt 0.567424 0.095476
vt 0.597140 0.027480
vt 0.428817 0.230418
vt 0.375000 0.101944
vt 0.375000 0.250000
vt 0.399317 0.500000
vt 0.484922 0.602942
vt 0.481608 0.642119
vt 0.375000 0.542141
vt 0.426532 0.518103
vt 0.597140 0.722520
vt 0.594885 0.742952
vt 0.592680 0.750000
vt 0.593587 0.750000
vt 0.375000 0.648056
vt 0.393065 0.580974
vt 0.428817 0.519583
vt 0.375000 0.577128
vt 0.391050 0.572445
vt 0.375000 1.000000
vt 0.592680 1.000000
vt 0.125000 0.648056
vt 0.125000 0.500000
vt 0.125000 0.542141
vt 0.566634 0.167544
vt 0.625000 0.140467
vt 0.563611 0.094354
vt 0.521355 0.098425
vt 0.530295 0.098197
vt 0.521355 0.099256
vt 0.566634 0.518488
vt 0.502134 0.514535
vt 0.521355 0.651575
vt 0.563611 0.655646
vt 0.563611 0.636611
vt 0.521355 0.627526
vt 0.375000 0.707779
vt 0.125000 0.707779
vt 0.875000 0.609533
vt 0.335011 0.535075
vt 0.164989 0.535075
vt 0.335011 0.500000
vt 0.164989 0.515746
vt 0.335011 0.515746
vt 0.375000 0.289989
vt 0.436389 0.460011
vt 0.436389 0.289989
vt 0.461120 0.064980
vt 0.461120 0.188705
vt 0.418009 0.250000
vt 0.418009 0.500000
vt 0.461120 0.685021
vt 0.590386 0.750000
vt 0.590386 1.000000
vt 0.125000 0.750000
vt 0.375000 0.293843
vt 0.442395 0.456157
vt 0.442395 0.293843
vt 0.624756 0.956157
vt 0.572143 0.793843
vt 0.572143 0.956157
vt 0.375000 0.956157
vt 0.572143 0.793843
vt 0.375000 0.793843
vt 0.168843 0.750000
vt 0.331157 0.500000
vt 0.168843 0.500000
vt 0.625000 0.456157
vt 0.625000 0.293843
vt 0.168843 0.727516
vt 0.331157 0.727516
vt 0.831157 0.502151
vt 0.668843 0.500000
vt 0.668843 0.502151
vt 0.500000 0.263384
vt 0.625000 0.486616
vt 0.625000 0.263384
vt 0.625000 0.986616
vt 0.500000 0.763384
vt 0.500000 0.986616
vt 0.138384 0.750000
vt 0.361616 0.500000
vt 0.138384 0.500000
vt 0.861616 0.500000
vt 0.638384 0.750000
vt 0.861616 0.750000
vt 0.375000 0.763384
vt 0.375000 0.986616
vt 0.375000 0.263384
vt 0.500000 0.486616
vt 0.594758 0.762500
vt 0.564961 0.987500
vt 0.564961 0.762500
vt 0.562500 0.762500
vt 0.466870 0.762500
vt 0.500000 0.987500
vt 0.466870 0.987500
vt 0.437500 0.987500
vt 0.411933 0.762500
vt 0.411933 0.987500
vt 0.395676 0.762500
vt 0.395675 0.987500
vt 0.377109 0.762500
vt 0.500000 0.762500
vt 0.562500 0.987500
vt 0.968750 0.500000
vt 1.000000 1.000000
vt 0.968750 1.000000
vt 0.937500 0.500000
vt 0.937500 1.000000
vt 0.906250 0.500000
vt 0.906250 1.000000
vt 0.875000 1.000000
vt 0.843750 0.500000
vt 0.843750 1.000000
vt 0.812500 0.500000
vt 0.812500 1.000000
vt 0.781250 1.000000
vt 0.750000 1.000000
vt 0.718750 1.000000
vt 0.687500 0.500000
vt 0.687500 1.000000
vt 0.656250 0.500000
vt 0.656250 1.000000
vt 0.593750 0.500000
vt 0.593750 1.000000
vt 0.562500 0.500000
vt 0.562500 1.000000
vt 0.531250 0.500000
vt 0.531250 1.000000
vt 0.468750 1.000000
vt 0.437500 1.000000
vt 0.468750 0.500000
vt 0.406250 1.000000
vt 0.437500 0.500000
vt 0.406250 0.500000
vt 0.343750 1.000000
vt 0.312500 1.000000
vt 0.343750 0.500000
vt 0.281250 1.000000
vt 0.250000 1.000000
vt 0.281250 0.500000
vt 0.218750 1.000000
vt 0.187500 1.000000
vt 0.218750 0.500000
vt 0.156250 1.000000
vt 0.125000 1.000000
vt 0.156250 0.500000
vt 0.093750 1.000000
vt 0.062500 0.500000
vt 0.062500 1.000000
vt 0.151444 0.151444
vt 0.134110 0.172565
vt 0.116663 0.050447
vt 0.485388 0.296822
vt 0.471731 0.341844
vt 0.386701 0.277192
vt 0.031250 1.000000
vt 0.000000 1.000000
vt 0.031250 0.500000
vt 0.610621 0.250000
vt 0.613299 0.222809
vt 0.514612 0.203178
vt 0.889379 0.250000
vt 0.886701 0.277192
vt 0.985388 0.296822
vt 0.093750 0.500000
vt 0.014612 0.203178
vt 0.069780 0.214152
vt 0.066249 0.250000
vt 0.485388 0.203178
vt 0.490000 0.250000
vt 0.433751 0.250000
vt 0.000000 0.500000
vt 0.528269 0.158156
vt 0.569780 0.214152
vt 0.580236 0.179682
vt 0.949553 0.383337
vt 0.971731 0.341844
vt 0.919764 0.320318
vt 0.530916 0.171322
vt 0.530916 0.074713
vt 0.625000 0.000000
vt 0.398452 0.500000
vt 0.398452 0.250000
vt 0.530916 0.675287
vt 0.494290 0.605978
vt 0.530916 0.578678
vt 0.375000 0.702588
vt 0.375000 0.466719
vt 0.537060 0.283281
vt 0.537059 0.466719
vt 0.451019 0.783281
vt 0.375000 0.966719
vt 0.375000 0.783281
vt 0.341719 0.750000
vt 0.158281 0.625000
vt 0.341719 0.625000
vt 0.341719 0.500000
vt 0.158281 0.500000
vt 0.451019 0.466719
vt 0.375000 0.283281
vt 0.451019 0.283281
vt 0.505199 0.783281
vt 0.532381 0.783281
vt 0.440590 0.966719
vt 0.440590 0.783281
vt 0.552534 0.783281
vt 0.440272 0.966719
vt 0.440272 0.783281
vt 0.968750 0.844657
vt 1.000000 0.500639
vt 0.968750 0.500639
vt 0.968750 0.972797
vt 1.000000 0.692006
vt 0.968750 0.692006
vt 0.937500 0.500639
vt 0.937500 0.692006
vt 0.906250 0.500639
vt 0.937500 0.844657
vt 0.906250 0.692006
vt 0.937500 0.972797
vt 0.875000 0.500639
vt 0.906250 0.844657
vt 0.875000 0.692006
vt 0.906250 0.972797
vt 0.843750 0.500639
vt 0.875000 0.844657
vt 0.843750 0.692006
vt 0.875000 0.972797
vt 0.812500 0.500639
vt 0.843750 0.844657
vt 0.812500 0.692006
vt 0.843750 0.972797
vt 0.781250 0.500639
vt 0.812500 0.844657
vt 0.781250 0.692006
vt 0.812500 0.972797
vt 0.781250 0.844657
vt 0.750000 0.500639
vt 0.750000 0.844657
vt 0.781250 0.972797
vt 0.750000 0.692006
vt 0.750000 0.972797
vt 0.718750 0.500639
vt 0.718750 0.692006
vt 0.687500 0.500639
vt 0.718750 0.844657
vt 0.687500 0.692006
vt 0.718750 0.972797
vt 0.656250 0.500639
vt 0.687500 0.844657
vt 0.656250 0.692006
vt 0.687500 0.972797
vt 0.625000 0.500639
vt 0.656250 0.844657
vt 0.625000 0.692006
vt 0.656250 0.972797
vt 0.593750 0.500639
vt 0.625000 0.844657
vt 0.593750 0.692006
vt 0.625000 0.972797
vt 0.562500 0.500639
vt 0.593750 0.844657
vt 0.562500 0.692006
vt 0.593750 0.972797
vt 0.531250 0.500639
vt 0.562500 0.844657
vt 0.531250 0.692006
vt 0.562500 0.972797
vt 0.500000 0.500639
vt 0.531250 0.844657
vt 0.500000 0.692006
vt 0.531250 0.972797
vt 0.468750 0.844657
vt 0.500000 0.844657
vt 0.468750 0.972797
vt 0.468750 0.692006
vt 0.468750 0.500639
vt 0.437500 0.844657
vt 0.437500 0.972797
vt 0.437500 0.500639
vt 0.406250 0.844657
vt 0.437500 0.692006
vt 0.406250 0.972797
vt 0.406250 0.500639
vt 0.375000 0.844657
vt 0.406250 0.692006
vt 0.375000 0.972797
vt 0.375000 0.500639
vt 0.343750 0.844657
vt 0.375000 0.692006
vt 0.343750 0.972797
vt 0.343750 0.500639
vt 0.312500 0.844657
vt 0.343750 0.692006
vt 0.312500 0.972797
vt 0.312500 0.500639
vt 0.281250 0.844657
vt 0.312500 0.692006
vt 0.281250 0.972797
vt 0.281250 0.500639
vt 0.250000 0.844657
vt 0.281250 0.692006
vt 0.250000 0.972797
vt 0.218750 0.844657
vt 0.250000 0.500639
vt 0.218750 0.500639
vt 0.250000 0.692006
vt 0.218750 0.972797
vt 0.187500 0.844657
vt 0.218750 0.692006
vt 0.187500 0.972797
vt 0.187500 0.500639
vt 0.156250 0.844657
vt 0.187500 0.692006
vt 0.156250 0.972797
vt 0.156250 0.500639
vt 0.125000 0.844657
vt 0.125000 0.692006
vt 0.156250 0.692006
vt 0.125000 0.500639
vt 0.093750 0.844657
vt 0.093750 0.972797
vt 0.125000 0.972797
vt 0.093750 0.500639
vt 0.062500 0.844657
vt 0.093750 0.692006
vt 0.062500 0.972797
vt 0.062500 0.500639
vt 0.031250 0.844657
vt 0.062500 0.692006
vt 0.031250 0.972797
vt 0.000000 0.844657
vt 0.031250 0.500639
vt 0.000000 0.500639
vt 0.000000 0.972797
vt 0.031250 0.692006
vt 0.000000 0.692006
vt 0.602066 0.070455
vt 0.575182 0.061604
vt 0.575353 0.041310
vt 0.575598 0.021307
vt 0.575283 0.194662
vt 0.575099 0.164745
vt 0.602052 0.158226
vt 0.500000 0.000000
vt 0.499730 0.017979
vt 0.375000 0.031250
vt 0.375000 0.187500
vt 0.375000 0.156250
vt 0.375000 0.125000
vt 0.424030 0.226882
vt 0.500025 0.233986
vt 0.418275 0.176654
vt 0.446001 0.108866
vt 0.448277 0.148047
vt 0.411561 0.151808
vt 0.375000 0.093750
vt 0.449185 0.063019
vt 0.422728 0.731137
vt 0.575283 0.555339
vt 0.602052 0.591774
vt 0.575099 0.585255
vt 0.575353 0.708690
vt 0.575182 0.688396
vt 0.602066 0.679544
vt 0.424030 0.523118
vt 0.418274 0.573346
vt 0.411561 0.598192
vt 0.448277 0.601953
vt 0.446001 0.641134
vt 0.412802 0.698266
vt 0.449184 0.686981
vt 0.875000 0.750000
vt 0.375000 0.437500
vt 0.375000 0.937500
vt 0.125000 0.656250
vt 0.625000 0.328677
vt 0.625000 0.421323
vt 0.625000 0.406250
vt 0.625000 0.828677
vt 0.625000 0.843750
vt 0.625000 0.921323
vt 0.375000 0.328677
vt 0.375000 0.921323
vt 0.296323 0.750000
vt 0.703677 0.500000
vt 0.592680 0.000000
vt 0.491032 0.192255
vt 0.567424 0.654524
vt 0.594243 0.742798
vt 0.625000 0.661135
vt 0.375000 0.570906
vt 0.491032 0.557745
vt 0.566634 0.231512
vt 0.375000 0.042221
vt 0.433339 0.037663
vt 0.433339 0.051309
vt 0.454731 0.048591
vt 0.454731 0.088894
vt 0.502134 0.235466
vt 0.437633 0.173509
vt 0.437633 0.231888
vt 0.521355 0.122321
vt 0.563611 0.113389
vt 0.563611 0.128895
vt 0.502134 0.156896
vt 0.514487 0.099746
vt 0.514487 0.099086
vt 0.454731 0.661107
vt 0.454731 0.701410
vt 0.454131 0.701336
vt 0.433339 0.698673
vt 0.433339 0.712315
vt 0.437633 0.518112
vt 0.437633 0.576492
vt 0.514487 0.650254
vt 0.502134 0.593105
vt 0.563611 0.621105
vt 0.625000 0.609533
vt 0.566634 0.582456
vt 0.514487 0.650914
vt 0.164989 0.500000
vt 0.375000 0.460011
vt 0.590386 0.000000
vt 0.594403 0.047214
vt 0.506684 0.194483
vt 0.445791 0.520655
vt 0.506684 0.555455
vt 0.461120 0.561295
vt 0.594403 0.702786
vt 0.440706 0.517054
vt 0.375000 0.456157
vt 0.624756 0.793843
vt 0.331157 0.750000
vt 0.375000 0.456157
vt 0.831157 0.500000
vt 0.625000 0.763384
vt 0.361616 0.750000
vt 0.638384 0.500000
vt 0.375000 0.486616
vt 0.594758 0.987500
vt 0.437500 0.762500
vt 0.377109 0.987500
vt 1.000000 0.500000
vt 0.348556 0.348556
vt 0.365890 0.327435
vt 0.341844 0.471731
vt 0.296822 0.485388
vt 0.303338 0.378770
vt 0.250000 0.490000
vt 0.277192 0.386701
vt 0.250000 0.389379
vt 0.203178 0.485388
vt 0.222809 0.386701
vt 0.158156 0.471731
vt 0.196662 0.378770
vt 0.116663 0.449553
vt 0.172565 0.365890
vt 0.080294 0.419706
vt 0.134111 0.327435
vt 0.151444 0.348556
vt 0.050447 0.383337
vt 0.121230 0.303338
vt 0.028269 0.341844
vt 0.113299 0.277192
vt 0.014612 0.296822
vt 0.010000 0.250000
vt 0.110621 0.250000
vt 0.028269 0.158156
vt 0.113299 0.222809
vt 0.050447 0.116663
vt 0.080294 0.080294
vt 0.121230 0.196662
vt 0.158156 0.028269
vt 0.172565 0.134111
vt 0.203178 0.014612
vt 0.196662 0.121231
vt 0.250000 0.010000
vt 0.222808 0.113299
vt 0.250000 0.110621
vt 0.296822 0.014612
vt 0.277192 0.113299
vt 0.341844 0.028269
vt 0.303338 0.121231
vt 0.327435 0.134111
vt 0.383337 0.050447
vt 0.419706 0.080294
vt 0.365889 0.172565
vt 0.348556 0.151444
vt 0.449553 0.116663
vt 0.378770 0.196662
vt 0.471731 0.158156
vt 0.386701 0.222809
vt 0.389379 0.250000
vt 0.327435 0.365890
vt 0.449553 0.383337
vt 0.419706 0.419706
vt 0.378770 0.303338
vt 0.383337 0.449553
vt 0.827435 0.134111
vt 0.848556 0.151444
vt 0.796822 0.014612
vt 0.750000 0.010000
vt 0.777192 0.113299
vt 0.703178 0.014612
vt 0.722808 0.113299
vt 0.658156 0.028269
vt 0.696662 0.121231
vt 0.616663 0.050447
vt 0.672565 0.134111
vt 0.580294 0.080294
vt 0.634111 0.172565
vt 0.550447 0.116663
vt 0.621230 0.196662
vt 0.651444 0.151444
vt 0.510000 0.250000
vt 0.514612 0.296822
vt 0.613299 0.277192
vt 0.528269 0.341844
vt 0.550447 0.383337
vt 0.621230 0.303338
vt 0.580294 0.419706
vt 0.616663 0.449553
vt 0.634110 0.327435
vt 0.651444 0.348556
vt 0.658156 0.471731
vt 0.672565 0.365890
vt 0.703178 0.485388
vt 0.696662 0.378770
vt 0.750000 0.490000
vt 0.722809 0.386701
vt 0.796822 0.485388
vt 0.777192 0.386701
vt 0.841844 0.471731
vt 0.803338 0.378770
vt 0.883337 0.449553
vt 0.827435 0.365890
vt 0.919706 0.419706
vt 0.865890 0.327435
vt 0.848556 0.348556
vt 0.750000 0.389379
vt 0.750000 0.110621
vt 0.803338 0.121231
vt 0.990000 0.250000
vt 0.985388 0.203178
vt 0.971731 0.158156
vt 0.886701 0.222809
vt 0.949553 0.116663
vt 0.919706 0.080294
vt 0.878770 0.196662
vt 0.883337 0.050447
vt 0.865889 0.172565
vt 0.841844 0.028269
vt 0.878769 0.303338
vt 0.352087 0.402783
vt 0.320318 0.419764
vt 0.285848 0.430220
vt 0.214152 0.430220
vt 0.250000 0.433751
vt 0.179682 0.419764
vt 0.147913 0.402783
vt 0.120068 0.379931
vt 0.097217 0.352086
vt 0.080236 0.320318
vt 0.069780 0.285848
vt 0.080236 0.179682
vt 0.097217 0.147914
vt 0.120069 0.120069
vt 0.147914 0.097217
vt 0.179682 0.080236
vt 0.214152 0.069780
vt 0.285848 0.069780
vt 0.320318 0.080236
vt 0.352086 0.097217
vt 0.379932 0.120069
vt 0.402783 0.147914
vt 0.419764 0.179682
vt 0.430220 0.214152
vt 0.250000 0.066249
vt 0.402783 0.352087
vt 0.379931 0.379931
vt 0.430220 0.285848
vt 0.419764 0.320318
vt 0.933751 0.250000
vt 0.930220 0.214152
vt 0.919764 0.179682
vt 0.902783 0.147914
vt 0.879931 0.120069
vt 0.852087 0.097217
vt 0.820318 0.080236
vt 0.785848 0.069780
vt 0.714152 0.069780
vt 0.679682 0.080236
vt 0.750000 0.066249
vt 0.647913 0.097217
vt 0.620069 0.120069
vt 0.597217 0.147914
vt 0.566249 0.250000
vt 0.569780 0.285848
vt 0.580236 0.320318
vt 0.597217 0.352087
vt 0.620068 0.379932
vt 0.647913 0.402783
vt 0.679682 0.419764
vt 0.714152 0.430220
vt 0.750000 0.433751
vt 0.785848 0.430220
vt 0.820318 0.419764
vt 0.852086 0.402783
vt 0.902783 0.352086
vt 0.879931 0.379931
vt 0.930220 0.285848
vt 0.494290 0.198622
vt 0.398452 0.198622
vt 0.375000 0.047412
vt 0.494290 0.047412
vt 0.494290 0.144022
vt 0.438333 0.144022
vt 0.438333 0.102013
vt 0.494290 0.102013
vt 0.494290 0.702588
vt 0.398452 0.551378
vt 0.494290 0.551378
vt 0.494290 0.647987
vt 0.438333 0.647987
vt 0.438333 0.605978
vt 0.125000 0.702588
vt 0.451019 0.966719
vt 0.158281 0.750000
vt 0.505199 0.966719
vt 0.532381 0.966719
vt 0.552534 0.966719
vt 1.000000 0.844657
vt 1.000000 0.972797
vt 0.500000 0.972797
s 0
usemtl 
f 2/1/1 3/2/1 5/3/1
f 44/4/1 45/5/1 43/6/1
f 45/5/2 113/7/2 43/6/2
f 72/8/3 75/9/3 71/10/3
f 113/7/3 115/11/3 112/12/3
f 13/13/4 76/14/4 16/15/4
f 57/16/5 62/17/5 58/18/5
f 45/19/6 76/14/6 116/20/6
f 90/21/7 35/22/7 43/6/7
f 57/23/8 71/10/8 47/24/8
f 93/25/9 91/26/9 92/27/9
f 33/28/9 82/29/9 83/30/9
f 29/31/5 35/32/5 34/33/5
f 88/34/5 98/35/5 97/36/5
f 47/37/5 10/38/5 50/39/5
f 11/40/5 52/41/5 51/42/5
f 63/43/5 61/44/5 64/45/5
f 54/46/5 52/41/5 61/44/5
f 52/41/5 86/47/5 61/44/5
f 61/44/5 93/25/5 64/45/5
f 5/48/5 12/49/5 11/40/5
f 12/49/5 25/50/5 33/28/5
f 12/49/5 83/30/5 52/41/5
f 9/51/5 4/52/5 10/38/5
f 4/52/10 11/40/10 10/38/10
f 10/38/10 51/42/10 50/39/10
f 34/33/5 90/53/5 88/34/5
f 25/50/9 32/54/9 33/28/9
f 24/55/5 34/33/5 32/54/5
f 32/54/5 88/34/5 82/29/5
f 86/47/9 82/29/9 91/26/9
f 82/29/5 97/36/5 91/26/5
f 91/26/5 99/56/5 92/27/5
f 47/37/5 53/57/5 57/16/5
f 53/57/10 51/42/10 54/46/10
f 62/17/10 54/46/10 63/43/10
f 97/36/5 101/58/5 99/56/5
f 105/59/11 46/60/11 42/61/11
f 14/62/12 18/63/12 67/64/12
f 89/21/13 100/65/13 112/66/13
f 72/67/14 59/68/14 48/24/14
f 26/69/15 87/30/15 84/29/15
f 85/34/6 100/70/6 89/53/6
f 48/37/6 3/71/6 2/72/6
f 7/73/6 56/41/6 8/74/6
f 55/42/6 66/75/6 56/41/6
f 87/30/6 66/75/6 96/76/6
f 8/74/6 87/30/6 28/77/6
f 3/71/16 55/42/16 7/73/16
f 27/78/6 89/53/6 30/79/6
f 26/69/6 85/34/6 27/78/6
f 87/30/15 94/80/15 84/29/15
f 84/29/6 95/81/6 85/34/6
f 48/37/6 60/82/6 49/39/6
f 49/39/16 65/83/16 55/42/16
f 107/84/17 109/85/17 106/86/17
f 68/87/5 73/88/5 67/89/5
f 38/90/5 40/91/5 37/92/5
f 40/91/17 102/93/17 39/94/17
f 104/95/5 107/84/5 103/96/5
f 79/97/18 80/98/18 78/99/18
f 22/100/18 70/101/18 69/102/18
f 17/103/5 18/104/5 15/105/5
f 19/106/5 67/89/5 18/104/5
f 22/100/5 68/87/5 19/106/5
f 20/107/5 19/106/5 17/103/5
f 23/108/5 102/93/5 70/101/5
f 36/109/5 23/108/5 21/110/5
f 21/110/18 22/100/18 20/107/18
f 106/86/5 81/111/5 79/97/5
f 70/101/5 106/86/5 79/97/5
f 69/102/18 79/97/18 78/99/18
f 108/112/5 110/113/5 107/84/5
f 114/114/5 111/115/5 108/112/5
f 105/116/5 108/112/5 104/95/5
f 41/117/5 103/96/5 40/91/5
f 46/118/5 104/95/5 41/117/5
f 44/119/5 41/117/5 38/90/5
f 37/92/17 39/94/17 36/109/17
f 74/120/5 75/121/5 73/88/5
f 78/99/5 77/122/5 74/120/5
f 69/102/5 74/120/5 68/87/5
f 103/96/17 106/86/17 102/93/17
f 167/123/1 176/124/1 186/125/1
f 199/126/1 189/127/1 117/128/1
f 178/129/1 191/130/1 123/131/1
f 194/132/1 186/125/1 177/133/1
f 119/134/19 168/135/19 122/58/19
f 190/136/3 198/137/3 120/18/3
f 172/138/3 168/135/3 187/139/3
f 145/140/3 121/14/3 200/141/3
f 169/142/3 200/141/3 170/143/3
f 175/144/3 201/145/3 195/146/3
f 174/147/3 202/148/3 201/145/3
f 117/149/20 169/142/20 171/150/20
f 120/18/21 177/151/21 175/144/21
f 119/152/21 172/138/21 176/153/21
f 144/5/1 137/154/1 143/155/1
f 129/156/6 183/156/6 127/157/6
f 127/157/1 203/158/1 188/159/1
f 203/158/1 127/157/1 183/156/1
f 144/5/22 163/7/22 141/6/22
f 163/7/3 164/160/3 162/161/3
f 149/162/6 185/163/6 151/163/6
f 184/164/3 149/162/3 150/165/3
f 138/152/5 181/166/5 180/167/5
f 143/168/6 166/20/6 144/19/6
f 141/6/23 160/58/23 138/134/23
f 151/169/6 183/170/6 129/170/6
f 158/171/6 182/172/6 184/173/6
f 136/174/24 165/175/24 143/176/24
f 132/177/1 131/178/1 176/179/1
f 152/58/25 176/179/25 172/180/25
f 154/181/3 155/18/3 172/180/3
f 133/149/26 184/182/26 182/183/26
f 133/184/6 152/58/6 155/18/6
f 131/185/27 175/186/27 177/187/27
f 125/188/28 151/189/28 129/190/28
f 132/191/28 185/192/28 154/193/28
f 132/194/5 153/195/5 131/196/5
f 124/185/29 148/197/29 126/198/29
f 146/195/6 171/199/6 169/200/6
f 125/201/5 148/202/5 147/203/5
f 135/204/30 156/205/30 134/206/30
f 139/207/31 162/208/31 140/209/31
f 142/210/5 159/211/5 137/212/5
f 134/213/6 161/214/6 139/215/6
f 140/209/32 164/216/32 142/217/32
f 137/218/33 157/219/33 135/204/33
f 168/220/34 186/221/34 187/222/34
f 186/221/34 195/223/34 187/222/34
f 190/224/35 196/225/35 189/226/35
f 199/227/35 190/224/35 189/226/35
f 192/228/36 199/227/36 191/229/36
f 179/230/36 191/229/36 178/231/36
f 178/231/36 181/232/36 179/230/36
f 197/233/37 194/234/37 196/225/37
f 383/235/38 450/236/38 452/237/38
f 387/238/39 452/237/39 456/239/39
f 413/240/40 456/239/40 482/241/40
f 414/19/41 482/241/41 483/242/41
f 418/243/42 483/242/42 487/244/42
f 417/245/43 487/244/43 486/246/43
f 416/118/44 486/246/44 485/247/44
f 415/116/45 485/247/45 484/248/45
f 401/114/46 484/248/46 470/249/46
f 400/250/47 470/249/47 469/251/47
f 399/252/48 469/251/48 468/253/48
f 396/20/49 468/253/49 465/15/49
f 394/254/50 465/15/50 463/255/50
f 365/256/51 463/255/51 434/257/51
f 361/258/52 434/257/52 430/259/52
f 360/7/53 430/259/53 429/13/53
f 320/260/54 360/7/54 429/13/54
f 316/261/55 259/262/55 320/260/55
f 287/263/56 255/264/56 316/261/56
f 286/149/57 226/265/57 287/263/57
f 285/266/58 225/58/58 286/149/58
f 283/267/59 224/268/59 285/266/59
f 284/269/60 222/35/60 283/267/60
f 299/270/61 223/271/61 284/269/61
f 300/272/62 238/53/62 299/270/62
f 301/273/63 239/274/63 300/272/63
f 302/275/64 240/32/64 301/273/64
f 306/276/65 241/277/65 302/275/65
f 307/278/66 245/152/66 306/276/66
f 272/279/67 307/278/67 333/280/67
f 317/281/68 318/282/68 287/283/68
f 485/284/68 486/285/68 480/286/68
f 336/287/69 272/279/69 333/280/69
f 450/288/70 275/289/70 336/287/70
f 242/290/71 228/291/71 223/292/71
f 410/293/71 411/294/71 416/295/71
f 373/235/38 440/236/38 442/237/38
f 376/238/39 442/237/39 445/239/39
f 378/240/40 445/239/40 447/241/40
f 408/19/41 447/241/41 477/242/41
f 406/243/42 477/242/42 475/244/42
f 407/245/43 475/244/43 476/246/43
f 405/118/44 476/246/44 474/247/44
f 409/116/45 474/247/45 478/248/45
f 393/114/46 478/248/46 462/249/46
f 392/250/47 462/249/47 461/251/47
f 391/252/48 461/251/48 460/253/48
f 388/20/49 460/253/49 457/15/49
f 356/254/50 457/15/50 425/255/50
f 355/256/51 425/255/51 424/257/51
f 351/258/52 424/257/52 420/259/52
f 350/7/53 420/259/53 419/13/53
f 252/262/54 419/13/54 313/260/54
f 309/261/55 252/262/55 313/260/55
f 308/263/56 248/264/56 309/261/56
f 280/149/57 247/265/57 308/263/57
f 277/266/58 219/58/58 280/149/58
f 278/267/59 216/268/59 277/266/59
f 279/269/60 217/35/60 278/267/60
f 218/271/61 291/270/61 230/53/61
f 292/272/62 230/53/62 291/270/62
f 293/273/63 231/274/63 292/272/63
f 294/275/64 232/32/64 293/273/64
f 298/276/65 233/277/65 294/275/65
f 325/278/66 237/152/66 298/276/66
f 327/280/67 264/296/67 325/278/67
f 279/297/68 281/298/68 295/299/68
f 462/300/68 478/301/68 471/302/68
f 329/287/69 266/279/69 327/280/69
f 371/303/70 329/287/70 440/288/70
f 217/304/71 220/305/71 221/306/71
f 406/307/71 407/308/71 404/309/71
f 212/310/1 215/311/1 288/312/1
f 227/5/71 338/313/71 204/314/71
f 349/315/3 345/316/3 346/317/3
f 208/149/68 464/14/68 288/15/68
f 208/184/6 341/318/6 342/18/6
f 227/19/5 464/14/5 395/20/5
f 214/319/71 341/320/71 207/321/71
f 209/322/68 347/323/68 213/324/68
f 213/325/72 349/326/72 215/327/72
f 214/328/73 349/326/73 348/329/73
f 206/330/71 345/331/71 340/332/71
f 205/333/68 344/323/68 210/324/68
f 210/325/72 346/326/72 212/327/72
f 211/328/73 346/326/73 345/329/73
f 206/334/6 343/335/6 209/336/6
f 204/337/6 339/338/6 205/339/6
f 439/340/54 369/341/54 370/342/54
f 449/343/54 379/344/54 380/345/54
f 372/346/55 439/340/55 370/342/55
f 382/347/55 449/343/55 380/345/55
f 377/348/56 441/349/56 372/346/56
f 386/350/56 451/351/56 382/347/56
f 374/352/57 446/353/57 377/348/57
f 384/354/57 455/355/57 386/350/57
f 375/356/58 443/357/58 374/352/58
f 385/358/58 453/359/58 384/354/58
f 404/360/59 444/361/59 375/356/59
f 412/362/59 454/363/59 385/358/59
f 403/364/60 473/365/60 404/360/60
f 411/366/60 481/367/60 412/362/60
f 472/368/61 402/369/61 471/370/61
f 480/371/61 410/372/61 479/373/61
f 390/374/62 471/370/62 402/369/62
f 398/375/62 479/373/62 410/372/62
f 389/376/63 459/377/63 390/374/63
f 397/378/63 467/379/63 398/375/63
f 359/380/64 458/381/64 389/376/64
f 368/382/64 466/383/64 397/378/64
f 358/384/65 428/385/65 359/380/65
f 367/386/65 437/387/65 368/382/65
f 357/388/66 427/389/66 358/384/66
f 366/390/66 436/391/66 367/386/66
f 354/392/67 426/393/67 357/388/67
f 364/394/67 435/395/67 366/390/67
f 353/396/69 423/397/69 354/392/69
f 363/398/69 433/399/69 364/394/69
f 352/400/70 422/401/70 353/396/70
f 362/402/70 432/403/70 363/398/70
f 352/400/38 315/404/38 421/405/38
f 322/406/38 362/402/38 261/407/38
f 254/408/39 314/409/39 315/404/39
f 261/407/39 321/410/39 322/406/39
f 253/411/40 312/412/40 314/409/40
f 260/413/40 319/414/40 321/410/40
f 251/415/41 310/416/41 312/412/41
f 258/417/41 317/418/41 319/414/41
f 249/419/42 311/420/42 310/416/42
f 256/421/42 318/422/42 317/418/42
f 250/423/43 282/424/43 311/420/43
f 257/425/43 290/426/43 318/422/43
f 221/427/44 281/428/44 282/424/44
f 229/429/44 289/430/44 290/426/44
f 220/431/45 295/432/45 281/428/45
f 228/433/45 303/434/45 289/430/45
f 296/435/46 234/436/46 235/437/46
f 242/438/46 304/439/46 303/434/46
f 235/437/47 297/440/47 296/435/47
f 243/441/47 305/442/47 304/439/47
f 236/443/48 323/444/48 297/440/48
f 244/445/48 331/446/48 305/442/48
f 262/447/49 324/448/49 323/444/49
f 271/449/49 331/446/49 270/450/49
f 263/451/50 326/452/50 324/448/50
f 271/449/50 334/453/50 332/454/50
f 265/455/51 328/456/51 326/452/51
f 273/457/51 335/458/51 334/453/51
f 267/459/52 330/460/52 328/456/52
f 274/461/52 337/462/52 335/458/52
f 438/463/53 269/464/53 369/465/53
f 448/466/53 276/467/53 379/468/53
f 21/469/1 20/470/1 17/471/1
f 21/469/1 17/471/1 15/472/1
f 38/473/1 37/474/1 36/475/1
f 45/5/1 38/473/1 36/475/1
f 1/128/1 13/476/1 2/1/1
f 13/476/1 16/312/1 15/472/1
f 14/477/1 13/476/1 15/472/1
f 5/3/1 4/478/1 1/128/1
f 16/312/1 45/5/1 36/475/1
f 16/312/1 36/475/1 21/469/1
f 29/479/1 24/480/1 25/481/1
f 43/6/1 31/134/1 30/482/1
f 31/134/1 29/479/1 30/482/1
f 42/483/1 44/4/1 43/6/1
f 30/482/1 42/483/1 43/6/1
f 16/312/1 21/469/1 15/472/1
f 27/484/1 30/482/1 29/479/1
f 27/484/1 29/479/1 25/481/1
f 8/485/1 28/486/1 26/487/1
f 26/487/1 27/484/1 25/481/1
f 26/487/1 25/481/1 6/488/1
f 7/489/1 8/485/1 3/2/1
f 8/485/1 26/487/1 6/488/1
f 3/2/1 8/485/1 6/488/1
f 6/488/1 5/3/1 3/2/1
f 13/476/1 14/477/1 2/1/1
f 5/3/1 1/128/1 2/1/1
f 44/4/1 38/473/1 45/5/1
f 45/5/2 116/20/2 113/7/2
f 76/14/3 71/10/3 75/9/3
f 71/10/3 58/18/3 59/490/3
f 72/8/3 71/10/3 59/490/3
f 58/18/3 62/17/3 63/43/3
f 111/491/3 115/11/3 116/20/3
f 109/492/3 110/493/3 111/491/3
f 77/494/3 80/495/3 81/496/3
f 109/492/3 111/491/3 116/20/3
f 75/9/3 77/494/3 81/496/3
f 81/496/3 109/492/3 76/14/3
f 109/492/3 116/20/3 76/14/3
f 93/25/3 92/27/3 99/56/3
f 99/56/3 101/58/3 100/497/3
f 101/58/3 113/7/3 100/497/3
f 113/7/3 112/12/3 100/497/3
f 93/25/3 99/56/3 95/498/3
f 99/56/3 100/497/3 95/498/3
f 64/45/3 93/25/3 94/499/3
f 93/25/3 95/498/3 94/499/3
f 94/499/3 96/500/3 66/501/3
f 63/43/3 64/45/3 60/502/3
f 64/45/3 94/499/3 66/501/3
f 60/502/3 64/45/3 66/501/3
f 66/501/3 65/503/3 60/502/3
f 63/43/3 60/502/3 59/490/3
f 75/9/3 81/496/3 76/14/3
f 58/18/3 63/43/3 59/490/3
f 113/7/3 116/20/3 115/11/3
f 13/13/4 71/10/4 76/14/4
f 57/16/5 53/57/5 62/17/5
f 45/19/6 16/504/6 76/14/6
f 35/22/7 31/134/7 43/6/7
f 43/6/7 113/7/7 90/21/7
f 113/7/7 101/58/7 98/505/7
f 113/7/7 98/505/7 90/21/7
f 13/13/8 1/149/8 9/506/8
f 13/13/8 9/506/8 47/24/8
f 58/18/8 71/10/8 57/23/8
f 71/10/8 13/13/8 47/24/8
f 93/25/9 86/47/9 91/26/9
f 33/28/9 32/54/9 82/29/9
f 29/31/5 31/152/5 35/32/5
f 88/34/5 90/53/5 98/35/5
f 47/37/5 9/51/5 10/38/5
f 11/40/5 12/49/5 52/41/5
f 63/43/5 54/46/5 61/44/5
f 54/46/5 51/42/5 52/41/5
f 52/41/5 83/30/5 86/47/5
f 61/44/5 86/47/5 93/25/5
f 5/48/5 6/507/5 12/49/5
f 12/49/5 6/507/5 25/50/5
f 12/49/5 33/28/5 83/30/5
f 9/51/5 1/184/5 4/52/5
f 4/52/10 5/48/10 11/40/10
f 10/38/10 11/40/10 51/42/10
f 34/33/5 35/32/5 90/53/5
f 25/50/9 24/55/9 32/54/9
f 24/55/5 29/31/5 34/33/5
f 32/54/5 34/33/5 88/34/5
f 86/47/9 83/30/9 82/29/9
f 82/29/5 88/34/5 97/36/5
f 91/26/5 97/36/5 99/56/5
f 47/37/5 50/39/5 53/57/5
f 53/57/10 50/39/10 51/42/10
f 62/17/10 53/57/10 54/46/10
f 97/36/5 98/35/5 101/58/5
f 46/60/11 44/508/11 42/61/11
f 42/61/11 112/66/11 105/59/11
f 112/66/11 115/509/11 114/510/11
f 112/66/11 114/510/11 105/59/11
f 75/511/12 72/67/12 73/512/12
f 72/67/12 14/62/12 67/64/12
f 73/512/12 72/67/12 67/64/12
f 14/62/12 15/513/12 18/63/12
f 112/66/13 42/61/13 89/21/13
f 42/61/13 30/514/13 89/21/13
f 48/24/14 2/515/14 14/62/14
f 14/62/14 72/67/14 48/24/14
f 26/69/15 28/77/15 87/30/15
f 85/34/6 95/81/6 100/70/6
f 48/37/6 49/39/6 3/71/6
f 7/73/6 55/42/6 56/41/6
f 55/42/6 65/83/6 66/75/6
f 87/30/6 56/41/6 66/75/6
f 8/74/6 56/41/6 87/30/6
f 3/71/16 49/39/16 55/42/16
f 27/78/6 85/34/6 89/53/6
f 26/69/6 84/29/6 85/34/6
f 87/30/15 96/76/15 94/80/15
f 84/29/6 94/80/6 95/81/6
f 48/37/6 59/516/6 60/82/6
f 49/39/16 60/82/16 65/83/16
f 107/84/17 110/113/17 109/85/17
f 68/87/5 74/120/5 73/88/5
f 38/90/5 41/117/5 40/91/5
f 40/91/17 103/96/17 102/93/17
f 104/95/5 108/112/5 107/84/5
f 79/97/18 81/111/18 80/98/18
f 22/100/18 23/108/18 70/101/18
f 17/103/5 19/106/5 18/104/5
f 19/106/5 68/87/5 67/89/5
f 22/100/5 69/102/5 68/87/5
f 20/107/5 22/100/5 19/106/5
f 23/108/5 39/94/5 102/93/5
f 36/109/5 39/94/5 23/108/5
f 21/110/18 23/108/18 22/100/18
f 106/86/5 109/85/5 81/111/5
f 70/101/5 102/93/5 106/86/5
f 69/102/18 70/101/18 79/97/18
f 108/112/5 111/115/5 110/113/5
f 114/114/5 115/517/5 111/115/5
f 105/116/5 114/114/5 108/112/5
f 41/117/5 104/95/5 103/96/5
f 46/118/5 105/116/5 104/95/5
f 44/119/5 46/118/5 41/117/5
f 37/92/17 40/91/17 39/94/17
f 74/120/5 77/122/5 75/121/5
f 78/99/5 80/98/5 77/122/5
f 69/102/5 78/99/5 74/120/5
f 103/96/17 107/84/17 106/86/17
f 167/123/1 119/134/1 176/124/1
f 189/127/1 177/133/1 117/128/1
f 117/128/1 171/518/1 199/126/1
f 171/518/1 123/131/1 191/130/1
f 199/126/1 171/518/1 191/130/1
f 171/518/1 118/312/1 123/131/1
f 118/312/1 178/129/1 123/131/1
f 176/124/1 177/133/1 186/125/1
f 177/133/1 189/127/1 196/519/1
f 194/132/1 177/133/1 196/519/1
f 119/134/19 167/123/19 168/135/19
f 198/137/3 192/520/3 169/142/3
f 192/520/3 145/140/3 193/521/3
f 193/521/3 169/142/3 192/520/3
f 169/142/3 120/18/3 198/137/3
f 175/144/3 190/136/3 120/18/3
f 172/138/3 122/58/3 168/135/3
f 200/141/3 193/521/3 145/140/3
f 145/140/3 192/520/3 179/522/3
f 179/522/3 121/14/3 145/140/3
f 121/14/3 170/143/3 200/141/3
f 169/142/3 193/521/3 200/141/3
f 202/148/3 173/523/3 187/139/3
f 173/523/3 172/138/3 187/139/3
f 187/139/3 195/146/3 201/145/3
f 202/148/3 187/139/3 201/145/3
f 195/146/3 197/524/3 175/144/3
f 197/524/3 190/136/3 175/144/3
f 175/144/3 174/147/3 201/145/3
f 174/147/3 173/523/3 202/148/3
f 117/149/20 120/18/20 169/142/20
f 120/18/21 117/184/21 177/151/21
f 119/152/21 122/58/21 172/138/21
f 144/5/1 142/525/1 137/154/1
f 180/526/1 178/527/1 118/528/1
f 118/528/1 171/529/1 124/530/1
f 180/526/1 118/528/1 124/530/1
f 142/525/1 144/5/1 141/6/1
f 140/531/1 142/525/1 141/6/1
f 138/134/1 180/526/1 134/532/1
f 180/526/1 124/530/1 134/532/1
f 140/531/1 141/6/1 139/533/1
f 141/6/1 138/134/1 139/533/1
f 128/534/1 182/535/1 136/536/1
f 136/536/1 143/155/1 137/154/1
f 136/536/1 137/154/1 128/534/1
f 137/154/1 135/537/1 128/534/1
f 134/532/1 139/533/1 138/134/1
f 128/534/1 135/537/1 126/538/1
f 135/537/1 134/532/1 124/530/1
f 128/534/1 126/538/1 188/159/1
f 126/538/1 135/537/1 124/530/1
f 127/157/1 188/159/1 125/539/1
f 188/159/1 126/538/1 125/539/1
f 127/157/3 125/539/3 129/156/3
f 183/156/1 182/535/1 203/158/1
f 182/535/1 128/534/1 203/158/1
f 128/534/1 188/159/1 203/158/1
f 144/5/22 166/20/22 163/7/22
f 163/7/3 166/20/3 164/160/3
f 146/540/3 169/541/3 170/542/3
f 121/543/3 179/544/3 181/166/3
f 146/540/3 170/542/3 121/543/3
f 146/540/3 121/543/3 181/166/3
f 160/58/3 163/7/3 161/545/3
f 163/7/3 162/161/3 161/545/3
f 146/540/3 181/166/3 156/546/3
f 181/166/3 160/58/3 156/546/3
f 160/58/3 161/545/3 156/546/3
f 148/547/3 146/540/3 157/548/3
f 146/540/3 156/546/3 157/548/3
f 158/549/3 184/164/3 150/165/3
f 166/20/3 165/550/3 159/551/3
f 165/550/3 158/549/3 159/551/3
f 159/551/3 164/160/3 166/20/3
f 158/549/3 150/165/3 159/551/3
f 157/548/3 159/551/3 150/165/3
f 148/547/3 157/548/3 150/165/3
f 148/547/3 150/165/3 149/162/3
f 147/552/3 148/547/3 149/162/3
f 151/163/74 147/552/74 149/162/74
f 184/164/3 185/163/3 149/162/3
f 138/152/5 160/58/5 181/166/5
f 143/168/6 165/550/6 166/20/6
f 141/6/23 163/7/23 160/58/23
f 151/169/6 185/169/6 183/170/6
f 158/171/6 136/553/6 182/172/6
f 136/174/24 158/554/24 165/175/24
f 176/179/1 130/134/1 133/128/1
f 133/128/1 182/555/1 132/177/1
f 182/555/1 183/556/1 132/177/1
f 131/178/1 177/557/1 176/179/1
f 133/128/1 132/177/1 176/179/1
f 152/58/25 130/134/25 176/179/25
f 174/558/3 175/559/3 153/560/3
f 154/181/3 185/561/3 184/182/3
f 173/562/3 174/558/3 153/560/3
f 154/181/3 184/182/3 155/18/3
f 173/562/3 153/560/3 172/180/3
f 153/560/3 154/181/3 172/180/3
f 152/58/3 172/180/3 155/18/3
f 133/149/26 155/18/26 184/182/26
f 133/184/6 130/152/6 152/58/6
f 131/185/27 153/563/27 175/186/27
f 125/188/28 147/564/28 151/189/28
f 132/191/28 183/190/28 185/192/28
f 132/194/5 154/565/5 153/195/5
f 124/185/29 146/566/29 148/197/29
f 146/195/6 124/196/6 171/199/6
f 125/201/5 126/567/5 148/202/5
f 135/204/30 157/219/30 156/205/30
f 139/207/31 161/568/31 162/208/31
f 142/210/5 164/569/5 159/211/5
f 134/213/6 156/570/6 161/214/6
f 140/209/32 162/208/32 164/216/32
f 137/218/33 159/571/33 157/219/33
f 168/220/34 167/572/34 186/221/34
f 186/221/34 194/234/34 195/223/34
f 190/224/35 197/233/35 196/225/35
f 199/227/35 198/573/35 190/224/35
f 192/228/36 198/573/36 199/227/36
f 179/230/36 192/228/36 191/229/36
f 178/231/36 180/574/36 181/232/36
f 197/233/37 195/223/37 194/234/37
f 383/235/38 381/575/38 450/236/38
f 387/238/39 383/235/39 452/237/39
f 413/240/40 387/238/40 456/239/40
f 414/19/41 413/240/41 482/241/41
f 418/243/42 414/19/42 483/242/42
f 417/245/43 418/243/43 487/244/43
f 416/118/44 417/245/44 486/246/44
f 415/116/45 416/118/45 485/247/45
f 401/114/46 415/116/46 484/248/46
f 400/250/47 401/114/47 470/249/47
f 399/252/48 400/250/48 469/251/48
f 396/20/49 399/252/49 468/253/49
f 394/254/50 396/20/50 465/15/50
f 365/256/51 394/254/51 463/255/51
f 361/258/52 365/256/52 434/257/52
f 360/7/53 361/258/53 430/259/53
f 320/260/54 259/262/54 360/7/54
f 316/261/55 255/264/55 259/262/55
f 287/263/56 226/265/56 255/264/56
f 286/149/57 225/58/57 226/265/57
f 285/266/58 224/268/58 225/58/58
f 283/267/59 222/35/59 224/268/59
f 284/269/60 223/271/60 222/35/60
f 299/270/61 238/53/61 223/271/61
f 300/272/62 239/274/62 238/53/62
f 301/273/63 240/32/63 239/274/63
f 302/275/64 241/277/64 240/32/64
f 306/276/65 245/152/65 241/277/65
f 307/278/66 246/296/66 245/152/66
f 272/279/67 246/296/67 307/278/67
f 453/576/68 454/577/68 456/578/68
f 456/578/68 452/579/68 451/580/68
f 452/579/68 450/581/68 449/582/68
f 449/582/68 450/581/68 448/583/68
f 450/581/68 336/584/68 337/585/68
f 336/584/68 333/586/68 335/587/68
f 333/586/68 307/588/68 334/589/68
f 307/588/68 306/590/68 331/591/68
f 334/589/68 307/588/68 332/592/68
f 306/590/68 302/593/68 305/594/68
f 302/593/68 301/595/68 304/596/68
f 306/590/68 305/594/68 331/591/68
f 301/595/68 300/597/68 304/596/68
f 300/597/68 299/598/68 303/599/68
f 299/598/68 284/297/68 303/599/68
f 284/297/68 283/600/68 289/601/68
f 283/600/68 285/602/68 289/601/68
f 285/602/68 286/603/68 290/604/68
f 286/603/68 287/283/68 318/282/68
f 287/283/68 316/605/68 319/606/68
f 286/603/68 318/282/68 290/604/68
f 316/605/68 320/607/68 321/608/68
f 320/607/68 429/609/68 322/610/68
f 322/610/68 429/609/68 431/611/68
f 429/609/68 430/612/68 432/613/68
f 430/612/68 434/614/68 433/615/68
f 433/615/68 434/614/68 435/616/68
f 434/614/68 463/617/68 435/616/68
f 463/617/68 465/618/68 437/619/68
f 435/616/68 463/617/68 436/620/68
f 465/618/68 468/621/68 466/622/68
f 468/621/68 469/623/68 467/624/68
f 465/618/68 466/622/68 437/619/68
f 469/623/68 480/286/68 479/625/68
f 469/623/68 479/625/68 467/624/68
f 285/602/68 290/604/68 289/601/68
f 300/597/68 303/599/68 304/596/68
f 284/297/68 289/601/68 303/599/68
f 336/584/68 335/587/68 337/585/68
f 455/626/68 453/576/68 456/578/68
f 451/580/68 455/626/68 456/578/68
f 332/592/68 307/588/68 331/591/68
f 335/587/68 333/586/68 334/589/68
f 430/612/68 433/615/68 432/613/68
f 436/620/68 463/617/68 437/619/68
f 467/624/68 466/622/68 468/621/68
f 449/582/68 451/580/68 452/579/68
f 337/585/68 448/583/68 450/581/68
f 429/609/68 432/613/68 431/611/68
f 305/594/68 302/593/68 304/596/68
f 320/607/68 322/610/68 321/608/68
f 316/605/68 321/608/68 319/606/68
f 319/606/68 317/281/68 287/283/68
f 487/627/68 483/628/68 481/629/68
f 483/628/68 482/630/68 454/577/68
f 481/629/68 483/628/68 454/577/68
f 482/630/68 456/578/68 454/577/68
f 481/629/68 480/286/68 487/627/68
f 480/286/68 469/623/68 470/300/68
f 484/301/68 480/286/68 470/300/68
f 486/285/68 487/627/68 480/286/68
f 484/301/68 485/284/68 480/286/68
f 336/287/69 275/289/69 272/279/69
f 450/288/70 381/303/70 275/289/70
f 366/631/71 367/632/71 361/633/71
f 361/633/71 360/634/71 363/635/71
f 360/634/71 259/636/71 261/637/71
f 259/636/71 255/638/71 260/639/71
f 255/638/71 226/640/71 258/641/71
f 226/640/71 225/642/71 257/643/71
f 225/642/71 224/644/71 229/645/71
f 226/640/71 257/643/71 256/646/71
f 224/644/71 222/304/71 228/291/71
f 222/304/71 223/292/71 228/291/71
f 224/644/71 228/291/71 229/645/71
f 223/292/71 238/647/71 242/290/71
f 238/647/71 239/648/71 242/290/71
f 242/290/71 239/648/71 243/649/71
f 239/648/71 240/650/71 243/649/71
f 240/650/71 241/651/71 243/649/71
f 243/649/71 241/651/71 244/652/71
f 241/651/71 245/653/71 244/652/71
f 245/653/71 246/654/71 270/655/71
f 270/655/71 246/654/71 271/656/71
f 246/654/71 272/657/71 273/658/71
f 272/657/71 275/659/71 274/660/71
f 246/654/71 273/658/71 271/656/71
f 275/659/71 381/661/71 276/662/71
f 381/661/71 383/663/71 380/664/71
f 383/663/71 387/665/71 382/666/71
f 387/665/71 413/667/71 386/668/71
f 382/666/71 387/665/71 386/668/71
f 413/667/71 414/669/71 385/670/71
f 414/669/71 418/307/71 385/670/71
f 413/667/71 385/670/71 384/671/71
f 418/307/71 417/308/71 385/670/71
f 417/308/71 416/295/71 385/670/71
f 384/671/71 386/668/71 413/667/71
f 381/661/71 380/664/71 379/672/71
f 360/634/71 261/637/71 362/673/71
f 255/638/71 258/641/71 260/639/71
f 364/674/71 366/631/71 361/633/71
f 363/635/71 364/674/71 361/633/71
f 257/643/71 225/642/71 229/645/71
f 258/641/71 226/640/71 256/646/71
f 383/663/71 382/666/71 380/664/71
f 362/673/71 363/635/71 360/634/71
f 381/661/71 379/672/71 276/662/71
f 260/639/71 261/637/71 259/636/71
f 275/659/71 276/662/71 274/660/71
f 274/660/71 273/658/71 272/657/71
f 245/653/71 270/655/71 244/652/71
f 415/675/71 401/676/71 410/293/71
f 401/676/71 400/677/71 398/678/71
f 400/677/71 399/679/71 398/678/71
f 399/679/71 396/680/71 397/681/71
f 398/678/71 399/679/71 397/681/71
f 396/680/71 394/682/71 368/683/71
f 394/682/71 365/684/71 367/632/71
f 396/680/71 368/683/71 397/681/71
f 365/684/71 361/633/71 367/632/71
f 367/632/71 368/683/71 394/682/71
f 416/295/71 415/675/71 410/293/71
f 401/676/71 398/678/71 410/293/71
f 412/685/71 385/670/71 416/295/71
f 411/294/71 412/685/71 416/295/71
f 373/235/38 371/575/38 440/236/38
f 376/238/39 373/235/39 442/237/39
f 378/240/40 376/238/40 445/239/40
f 408/19/41 378/240/41 447/241/41
f 406/243/42 408/19/42 477/242/42
f 407/245/43 406/243/43 475/244/43
f 405/118/44 407/245/44 476/246/44
f 409/116/45 405/118/45 474/247/45
f 393/114/46 409/116/46 478/248/46
f 392/250/47 393/114/47 462/249/47
f 391/252/48 392/250/48 461/251/48
f 388/20/49 391/252/49 460/253/49
f 356/254/50 388/20/50 457/15/50
f 355/256/51 356/254/51 425/255/51
f 351/258/52 355/256/52 424/257/52
f 350/7/53 351/258/53 420/259/53
f 252/262/54 350/7/54 419/13/54
f 309/261/55 248/264/55 252/262/55
f 308/263/56 247/265/56 248/264/56
f 280/149/57 219/58/57 247/265/57
f 277/266/58 216/268/58 219/58/58
f 278/267/59 217/35/59 216/268/59
f 279/269/60 218/271/60 217/35/60
f 218/271/61 279/269/61 291/270/61
f 292/272/62 231/274/62 230/53/62
f 293/273/63 232/32/63 231/274/63
f 294/275/64 233/277/64 232/32/64
f 298/276/65 237/152/65 233/277/65
f 325/278/66 264/296/66 237/152/66
f 327/280/67 266/279/67 264/296/67
f 447/630/68 445/578/68 446/686/68
f 445/578/68 442/579/68 441/687/68
f 442/579/68 440/581/68 439/688/68
f 440/581/68 329/584/68 330/689/68
f 439/688/68 440/581/68 438/690/68
f 329/584/68 327/586/68 328/691/68
f 327/586/68 325/588/68 326/692/68
f 328/691/68 327/586/68 326/692/68
f 325/588/68 298/590/68 324/693/68
f 298/590/68 294/593/68 323/694/68
f 324/693/68 298/590/68 323/694/68
f 294/593/68 293/595/68 297/695/68
f 293/595/68 292/597/68 296/696/68
f 297/695/68 293/595/68 296/696/68
f 292/597/68 291/598/68 295/299/68
f 291/598/68 279/297/68 295/299/68
f 292/597/68 295/299/68 296/696/68
f 279/297/68 278/600/68 281/298/68
f 278/600/68 277/602/68 282/697/68
f 277/602/68 280/603/68 311/698/68
f 280/603/68 308/283/68 310/699/68
f 308/283/68 309/605/68 312/700/68
f 309/605/68 313/607/68 314/701/68
f 313/607/68 419/609/68 315/702/68
f 419/609/68 420/612/68 422/703/68
f 420/612/68 424/614/68 423/704/68
f 424/614/68 425/617/68 426/705/68
f 425/617/68 457/618/68 427/706/68
f 457/618/68 460/621/68 428/707/68
f 427/706/68 457/618/68 428/707/68
f 460/621/68 461/623/68 458/708/68
f 461/623/68 459/709/68 458/708/68
f 424/614/68 426/705/68 423/704/68
f 309/605/68 314/701/68 312/700/68
f 419/609/68 422/703/68 421/710/68
f 278/600/68 282/697/68 281/298/68
f 280/603/68 310/699/68 311/698/68
f 445/578/68 441/687/68 446/686/68
f 441/687/68 442/579/68 439/688/68
f 475/627/68 477/628/68 444/711/68
f 477/628/68 447/630/68 443/712/68
f 472/713/68 476/285/68 473/714/68
f 476/285/68 475/627/68 473/714/68
f 477/628/68 443/712/68 444/711/68
f 460/621/68 458/708/68 428/707/68
f 444/711/68 473/714/68 475/627/68
f 425/617/68 427/706/68 426/705/68
f 446/686/68 443/712/68 447/630/68
f 420/612/68 423/704/68 422/703/68
f 438/690/68 440/581/68 330/689/68
f 419/609/68 421/710/68 315/702/68
f 313/607/68 315/702/68 314/701/68
f 330/689/68 329/584/68 328/691/68
f 326/692/68 325/588/68 324/693/68
f 308/283/68 312/700/68 310/699/68
f 277/602/68 311/698/68 282/697/68
f 297/695/68 323/694/68 294/593/68
f 478/301/68 474/284/68 471/302/68
f 474/284/68 476/285/68 472/713/68
f 471/302/68 474/284/68 472/713/68
f 471/302/68 459/709/68 462/300/68
f 459/709/68 461/623/68 462/300/68
f 329/287/69 268/289/69 266/279/69
f 371/303/70 268/289/70 329/287/70
f 409/675/71 393/676/71 402/715/71
f 393/676/71 392/677/71 390/716/71
f 392/677/71 391/679/71 389/717/71
f 391/679/71 388/680/71 359/718/71
f 388/680/71 356/682/71 358/719/71
f 356/682/71 355/684/71 357/720/71
f 358/719/71 356/682/71 357/720/71
f 355/684/71 351/633/71 354/721/71
f 351/633/71 350/634/71 353/722/71
f 354/721/71 351/633/71 353/722/71
f 350/634/71 252/636/71 254/723/71
f 252/636/71 248/638/71 253/724/71
f 350/634/71 254/723/71 352/725/71
f 248/638/71 247/640/71 251/726/71
f 247/640/71 219/642/71 249/727/71
f 251/726/71 247/640/71 249/727/71
f 219/642/71 216/644/71 250/728/71
f 216/644/71 217/304/71 221/306/71
f 250/728/71 216/644/71 221/306/71
f 217/304/71 218/292/71 220/305/71
f 218/292/71 230/647/71 234/729/71
f 230/647/71 231/648/71 234/729/71
f 231/648/71 232/650/71 235/730/71
f 232/650/71 233/651/71 236/731/71
f 233/651/71 237/653/71 262/732/71
f 237/653/71 264/654/71 263/733/71
f 264/654/71 266/657/71 265/734/71
f 266/657/71 268/659/71 267/735/71
f 268/659/71 371/661/71 269/736/71
f 269/736/71 371/661/71 369/737/71
f 371/661/71 373/663/71 370/738/71
f 373/663/71 376/665/71 372/739/71
f 376/665/71 378/667/71 377/740/71
f 378/667/71 375/741/71 374/742/71
f 378/667/71 374/742/71 377/740/71
f 373/663/71 372/739/71 370/738/71
f 233/651/71 262/732/71 236/731/71
f 264/654/71 265/734/71 263/733/71
f 218/292/71 234/729/71 220/305/71
f 231/648/71 235/730/71 234/729/71
f 391/679/71 359/718/71 389/717/71
f 359/718/71 388/680/71 358/719/71
f 405/295/71 409/675/71 402/715/71
f 393/676/71 390/716/71 402/715/71
f 402/715/71 403/743/71 405/295/71
f 376/665/71 377/740/71 372/739/71
f 389/717/71 390/716/71 392/677/71
f 371/661/71 370/738/71 369/737/71
f 268/659/71 269/736/71 267/735/71
f 354/721/71 357/720/71 355/684/71
f 266/657/71 267/735/71 265/734/71
f 353/722/71 350/634/71 352/725/71
f 237/653/71 263/733/71 262/732/71
f 254/723/71 252/636/71 253/724/71
f 251/726/71 253/724/71 248/638/71
f 232/650/71 236/731/71 235/730/71
f 249/727/71 219/642/71 250/728/71
f 407/308/71 405/295/71 403/743/71
f 404/309/71 375/741/71 406/307/71
f 375/741/71 378/667/71 408/669/71
f 407/308/71 403/743/71 404/309/71
f 408/669/71 406/307/71 375/741/71
f 227/5/1 204/314/1 210/744/1
f 204/314/1 205/745/1 210/744/1
f 207/746/1 208/128/1 214/747/1
f 208/128/1 288/312/1 214/747/1
f 227/5/1 210/744/1 212/310/1
f 211/748/1 206/749/1 209/750/1
f 288/312/1 227/5/1 212/310/1
f 212/310/1 211/748/1 213/751/1
f 211/748/1 209/750/1 213/751/1
f 215/311/1 214/747/1 288/312/1
f 212/310/1 213/751/1 215/311/1
f 227/5/71 395/20/71 338/313/71
f 342/18/3 341/318/3 348/752/3
f 464/14/3 342/18/3 348/752/3
f 339/753/3 338/313/3 344/754/3
f 338/313/3 395/20/3 344/754/3
f 464/14/3 348/752/3 349/315/3
f 347/755/3 343/756/3 340/757/3
f 395/20/3 464/14/3 346/317/3
f 464/14/3 349/315/3 346/317/3
f 349/315/3 347/755/3 345/316/3
f 347/755/3 340/757/3 345/316/3
f 346/317/3 344/754/3 395/20/3
f 208/149/68 342/18/68 464/14/68
f 208/184/6 207/758/6 341/318/6
f 227/19/5 288/504/5 464/14/5
f 214/319/71 348/331/71 341/320/71
f 209/322/68 343/759/68 347/323/68
f 213/325/72 347/760/72 349/326/72
f 214/328/73 215/327/73 349/326/73
f 206/330/71 211/319/71 345/331/71
f 205/333/68 339/761/68 344/323/68
f 210/325/72 344/760/72 346/326/72
f 211/328/73 212/327/73 346/326/73
f 206/334/6 340/762/6 343/335/6
f 204/337/6 338/763/6 339/338/6
f 439/340/54 438/764/54 369/341/54
f 449/343/54 448/765/54 379/344/54
f 372/346/55 441/349/55 439/340/55
f 382/347/55 451/351/55 449/343/55
f 377/348/56 446/353/56 441/349/56
f 386/350/56 455/355/56 451/351/56
f 374/352/57 443/357/57 446/353/57
f 384/354/57 453/359/57 455/355/57
f 375/356/58 444/361/58 443/357/58
f 385/358/58 454/363/58 453/359/58
f 404/360/59 473/365/59 444/361/59
f 412/362/59 481/367/59 454/363/59
f 403/364/60 472/368/60 473/365/60
f 411/366/60 480/371/60 481/367/60
f 472/368/61 403/364/61 402/369/61
f 480/371/61 411/366/61 410/372/61
f 390/374/62 459/377/62 471/370/62
f 398/375/62 467/379/62 479/373/62
f 389/376/63 458/381/63 459/377/63
f 397/378/63 466/383/63 467/379/63
f 359/380/64 428/385/64 458/381/64
f 368/382/64 437/387/64 466/383/64
f 358/384/65 427/389/65 428/385/65
f 367/386/65 436/391/65 437/387/65
f 357/388/66 426/393/66 427/389/66
f 366/390/66 435/395/66 436/391/66
f 354/392/67 423/397/67 426/393/67
f 364/394/67 433/399/67 435/395/67
f 353/396/69 422/401/69 423/397/69
f 363/398/69 432/403/69 433/399/69
f 352/400/70 421/405/70 422/401/70
f 362/402/70 431/766/70 432/403/70
f 352/400/38 254/408/38 315/404/38
f 322/406/38 431/766/38 362/402/38
f 254/408/39 253/411/39 314/409/39
f 261/407/39 260/413/39 321/410/39
f 253/411/40 251/415/40 312/412/40
f 260/413/40 258/417/40 319/414/40
f 251/415/41 249/419/41 310/416/41
f 258/417/41 256/421/41 317/418/41
f 249/419/42 250/423/42 311/420/42
f 256/421/42 257/425/42 318/422/42
f 250/423/43 221/427/43 282/424/43
f 257/425/43 229/429/43 290/426/43
f 221/427/44 220/431/44 281/428/44
f 229/429/44 228/433/44 289/430/44
f 220/431/45 234/436/45 295/432/45
f 228/433/45 242/438/45 303/434/45
f 296/435/46 295/432/46 234/436/46
f 242/438/46 243/441/46 304/439/46
f 235/437/47 236/443/47 297/440/47
f 243/441/47 244/445/47 305/442/47
f 236/443/48 262/447/48 323/444/48
f 244/445/48 270/450/48 331/446/48
f 262/447/49 263/451/49 324/448/49
f 271/449/49 332/454/49 331/446/49
f 263/451/50 265/455/50 326/452/50
f 271/449/50 273/457/50 334/453/50
f 265/455/51 267/459/51 328/456/51
f 273/457/51 274/461/51 335/458/51
f 267/459/52 269/464/52 330/460/52
f 274/461/52 276/467/52 337/462/52
f 438/463/53 330/460/53 269/464/53
f 448/466/53 337/462/53 276/467/53
